<?xml version="1.0" encoding="UTF-8"?>
<svg version="1.1" xmlns="http://www.w3.org/2000/svg" width="512" height="512">
<path d="M0 0 C0.66209473 -0.00095673 1.32418945 -0.00191345 2.00634766 -0.00289917 C3.40852961 -0.00358076 4.8107147 -0.00172792 6.21289062 0.00244141 C8.36595713 0.00779004 10.51881502 0.0024958 12.671875 -0.00390625 C14.03125046 -0.00324546 15.3906258 -0.00196429 16.75 0 C18.61785156 0.00169189 18.61785156 0.00169189 20.5234375 0.00341797 C23.375 0.1328125 23.375 0.1328125 24.375 1.1328125 C26.12214233 1.38283459 27.87299141 1.60704444 29.625 1.8203125 C35.86047363 2.78994357 40.94672829 4.97820082 46.5625 7.79296875 C48.88409873 8.89895259 50.86788236 9.64464777 53.375 10.1328125 C53.375 10.7928125 53.375 11.4528125 53.375 12.1328125 C53.931875 12.2565625 54.48875 12.3803125 55.0625 12.5078125 C57.59614364 13.19258105 59.95421032 14.12415013 62.375 15.1328125 C62.375 15.7928125 62.375 16.4528125 62.375 17.1328125 C62.890625 17.2153125 63.40625 17.2978125 63.9375 17.3828125 C67.41955732 18.45421475 70.24700885 20.26804855 73.375 22.1328125 C73.375 22.7928125 73.375 23.4528125 73.375 24.1328125 C74.03242188 24.32875 74.68984375 24.5246875 75.3671875 24.7265625 C79.62526374 26.71735139 82.91598291 29.62328267 86.5 32.6328125 C87.91838332 33.81096513 89.33762066 34.98809056 90.7578125 36.1640625 C91.69197998 36.94620117 91.69197998 36.94620117 92.64501953 37.74414062 C94.53598876 39.30389127 94.53598876 39.30389127 97.375 41.1328125 C97.375 41.7928125 97.375 42.4528125 97.375 43.1328125 C98.303125 43.596875 98.303125 43.596875 99.25 44.0703125 C100.625 44.7578125 102 45.4453125 103.375 46.1328125 C103.375 46.7928125 103.375 47.4528125 103.375 48.1328125 C103.90867188 48.33777344 104.44234375 48.54273438 104.9921875 48.75390625 C108.37437434 50.71113896 110.80537488 53.392509 113.5 56.1953125 C117.07053366 60.1373019 117.07053366 60.1373019 121.375 63.1328125 C121.375 63.7928125 121.375 64.4528125 121.375 65.1328125 C124.46309695 66.89743933 125.60812136 67.1328125 129.375 67.1328125 C131.57567421 66.19997954 131.57567421 66.19997954 133.375 65.1328125 C133.375 64.4728125 133.375 63.8128125 133.375 63.1328125 C134.84375 61.6875 134.84375 61.6875 136.875 60.0078125 C139.88772765 57.45284912 142.73347888 54.82774137 145.5 52.0078125 C148.65136562 48.81922603 151.80682654 45.85142085 155.375 43.1328125 C156.035 43.1328125 156.695 43.1328125 157.375 43.1328125 C157.375 42.4728125 157.375 41.8128125 157.375 41.1328125 C159.29455563 39.43854234 161.21950023 37.87311207 163.25 36.3203125 C163.86335205 35.8461792 164.4767041 35.3720459 165.10864258 34.88354492 C170.37793834 30.83945369 175.70651485 26.87364945 181.0625 22.9453125 C181.84028809 22.36869873 182.61807617 21.79208496 183.41943359 21.19799805 C184.51698975 20.40196167 184.51698975 20.40196167 185.63671875 19.58984375 C186.28600342 19.11522705 186.93528809 18.64061035 187.60424805 18.15161133 C189.375 17.1328125 189.375 17.1328125 192.375 17.1328125 C192.375 16.4728125 192.375 15.8128125 192.375 15.1328125 C198 12.1328125 198 12.1328125 201.375 12.1328125 C201.375 11.4728125 201.375 10.8128125 201.375 10.1328125 C202.09945313 9.87886719 202.82390625 9.62492187 203.5703125 9.36328125 C209.58220953 7.25689142 209.58220953 7.25689142 215.3125 4.5078125 C219.39575092 2.67451617 223.44954443 2.18140037 227.86328125 1.5625 C230.30701798 1.39337673 230.30701798 1.39337673 231.375 0.1328125 C233.58150656 0.03268849 235.79122386 0.0020007 238 0 C238.66209473 -0.00095673 239.32418945 -0.00191345 240.00634766 -0.00289917 C241.40852961 -0.00358076 242.8107147 -0.00172792 244.21289062 0.00244141 C246.36595713 0.00779004 248.51881502 0.0024958 250.671875 -0.00390625 C252.03125046 -0.00324546 253.3906258 -0.00196429 254.75 0 C256.61785156 0.00169189 256.61785156 0.00169189 258.5234375 0.00341797 C261.375 0.1328125 261.375 0.1328125 262.375 1.1328125 C264.12214233 1.38283459 265.87299141 1.60704444 267.625 1.8203125 C274.90115269 2.98415209 280.84545875 5.82842087 287.375 9.1328125 C288.3753125 9.59816406 289.375625 10.06351563 290.40625 10.54296875 C296.12300317 13.24338242 301.41375165 16.3214602 306.625 19.8828125 C307.19863281 20.27186768 307.77226562 20.66092285 308.36328125 21.06176758 C309.74088494 22.03044806 311.06408824 23.07562559 312.375 24.1328125 C312.375 24.7928125 312.375 25.4528125 312.375 26.1328125 C312.94734375 26.390625 313.5196875 26.6484375 314.109375 26.9140625 C316.58628995 28.24647192 318.5091166 29.78337368 320.625 31.6328125 C321.68460937 32.54546875 321.68460937 32.54546875 322.765625 33.4765625 C324.375 35.1328125 324.375 35.1328125 324.375 37.1328125 C325.035 37.1328125 325.695 37.1328125 326.375 37.1328125 C329.375 40.59435096 329.375 40.59435096 329.375 43.1328125 C330.035 43.1328125 330.695 43.1328125 331.375 43.1328125 C332.6640625 44.59375 332.6640625 44.59375 334 46.5078125 C334.44601562 47.13429687 334.89203125 47.76078125 335.3515625 48.40625 C336.375 50.1328125 336.375 50.1328125 336.375 52.1328125 C337.035 52.1328125 337.695 52.1328125 338.375 52.1328125 C339.035 53.4528125 339.695 54.7728125 340.375 56.1328125 C341.86 55.6378125 341.86 55.6378125 343.375 55.1328125 C342.715 56.7828125 342.055 58.4328125 341.375 60.1328125 C342.035 60.1328125 342.695 60.1328125 343.375 60.1328125 C344.21766711 61.87833723 345.04880038 63.6294333 345.875 65.3828125 C346.3390625 66.35734375 346.803125 67.331875 347.28125 68.3359375 C348.375 71.1328125 348.375 71.1328125 348.375 75.1328125 C349.035 75.1328125 349.695 75.1328125 350.375 75.1328125 C350.50777344 75.84308594 350.64054687 76.55335938 350.77734375 77.28515625 C350.95394531 78.20425781 351.13054687 79.12335938 351.3125 80.0703125 C351.57353516 81.44509766 351.57353516 81.44509766 351.83984375 82.84765625 C352.15214988 85.08571094 352.15214988 85.08571094 353.375 86.1328125 C353.70833333 88.46614583 354.04166667 90.79947917 354.375 93.1328125 C354.705 93.4628125 355.035 93.7928125 355.375 94.1328125 C355.47587212 96.64205403 355.51472032 99.12317634 355.5078125 101.6328125 C355.50924759 102.75913086 355.50924759 102.75913086 355.51071167 103.90820312 C355.51139338 105.49869877 355.50953972 107.08919717 355.50537109 108.6796875 C355.50002267 111.12245905 355.50531634 113.56504671 355.51171875 116.0078125 C355.51105797 117.54947957 355.5097768 119.09114653 355.5078125 120.6328125 C355.50983673 121.36822266 355.51186096 122.10363281 355.51394653 122.86132812 C355.48995161 128.01786089 355.48995161 128.01786089 354.375 129.1328125 C353.8353272 131.37362781 353.3432214 133.62598536 352.875 135.8828125 C352.6171875 137.11515625 352.359375 138.3475 352.09375 139.6171875 C351.51370137 142.45438188 350.93875726 145.29234321 350.375 148.1328125 C349.715 148.1328125 349.055 148.1328125 348.375 148.1328125 C348.17777344 149.215625 348.17777344 149.215625 347.9765625 150.3203125 C345.89761546 160.04006489 341.21408621 168.54559479 336.375 177.1328125 C335.39541412 178.90341397 334.41619066 180.67421605 333.4375 182.4453125 C332.75091225 183.67498896 332.06381098 184.90438001 331.375 186.1328125 C330.715 186.1328125 330.055 186.1328125 329.375 186.1328125 C328.39379536 189.18544914 328.39379536 191.08017586 329.375 194.1328125 C329.045 193.4728125 328.715 192.8128125 328.375 192.1328125 C327.715 192.1328125 327.055 192.1328125 326.375 192.1328125 C326.375 192.7928125 326.375 193.4528125 326.375 194.1328125 C325.715 194.1328125 325.055 194.1328125 324.375 194.1328125 C325.035 195.7828125 325.695 197.4328125 326.375 199.1328125 C325.055 199.1328125 323.735 199.1328125 322.375 199.1328125 C320.7303326 201.59607962 320.7303326 201.59607962 319.375 204.1328125 C318.715 204.1328125 318.055 204.1328125 317.375 204.1328125 C317.045 205.7828125 316.715 207.4328125 316.375 209.1328125 C315.715 209.1328125 315.055 209.1328125 314.375 209.1328125 C314.375 209.7928125 314.375 210.4528125 314.375 211.1328125 C313.715 211.1328125 313.055 211.1328125 312.375 211.1328125 C312.106875 211.6896875 311.83875 212.2465625 311.5625 212.8203125 C310.26600504 215.34506584 308.95023677 217.76995734 307.375 220.1328125 C306.715 220.1328125 306.055 220.1328125 305.375 220.1328125 C305.045 221.4528125 304.715 222.7728125 304.375 224.1328125 C303.715 224.1328125 303.055 224.1328125 302.375 224.1328125 C302.106875 224.7103125 301.83875 225.2878125 301.5625 225.8828125 C300.34570811 228.18831293 299.07166121 230.15337442 297.375 232.1328125 C296.715 232.1328125 296.055 232.1328125 295.375 232.1328125 C295.1275 232.68453125 294.88 233.23625 294.625 233.8046875 C293.13265526 236.58417957 291.33827477 238.9142832 289.375 241.3828125 C288.67375 242.27484375 287.9725 243.166875 287.25 244.0859375 C286.63125 244.76140625 286.0125 245.436875 285.375 246.1328125 C284.715 246.1328125 284.055 246.1328125 283.375 246.1328125 C283.148125 246.6896875 282.92125 247.2465625 282.6875 247.8203125 C281.01332737 250.77004523 278.79667689 252.7702009 276.375 255.1328125 C275.818125 255.8959375 275.26125 256.6590625 274.6875 257.4453125 C274.254375 258.0021875 273.82125 258.5590625 273.375 259.1328125 C272.715 259.1328125 272.055 259.1328125 271.375 259.1328125 C271.375 259.7928125 271.375 260.4528125 271.375 261.1328125 C270.715 261.1328125 270.055 261.1328125 269.375 261.1328125 C269.00375 261.968125 269.00375 261.968125 268.625 262.8203125 C266.0437166 267.59568679 262.34897826 271.47256936 258.375 275.1328125 C257.715 275.1328125 257.055 275.1328125 256.375 275.1328125 C256.375 275.7928125 256.375 276.4528125 256.375 277.1328125 C255 278.7578125 255 278.7578125 253.375 280.1328125 C252.715 280.1328125 252.055 280.1328125 251.375 280.1328125 C251.375 280.7928125 251.375 281.4528125 251.375 282.1328125 C250 283.7578125 250 283.7578125 248.375 285.1328125 C247.715 285.1328125 247.055 285.1328125 246.375 285.1328125 C246.375 285.7928125 246.375 286.4528125 246.375 287.1328125 C244 289.7578125 244 289.7578125 241.375 292.1328125 C240.715 292.1328125 240.055 292.1328125 239.375 292.1328125 C239.375 292.7928125 239.375 293.4528125 239.375 294.1328125 C237.765625 295.71875 237.765625 295.71875 235.625 297.5078125 C233.30596298 299.47038977 231.12280716 301.391642 229 303.5703125 C227.375 305.1328125 227.375 305.1328125 225.375 305.1328125 C225.375 305.7928125 225.375 306.4528125 225.375 307.1328125 C224.715 307.1328125 224.055 307.1328125 223.375 307.1328125 C223.375 307.7928125 223.375 308.4528125 223.375 309.1328125 C221.9765625 310.5078125 221.9765625 310.5078125 220 312.1328125 C215.54578591 315.89503262 211.51816468 319.99339532 207.4765625 324.19140625 C205.375 326.1328125 205.375 326.1328125 203.375 326.1328125 C203.375 326.7928125 203.375 327.4528125 203.375 328.1328125 C201.9140625 329.640625 201.9140625 329.640625 200 331.2578125 C199.37351562 331.79664063 198.74703125 332.33546875 198.1015625 332.890625 C196.375 334.1328125 196.375 334.1328125 194.375 334.1328125 C194.375 334.7928125 194.375 335.4528125 194.375 336.1328125 C193.715 336.1328125 193.055 336.1328125 192.375 336.1328125 C192.375 336.7928125 192.375 337.4528125 192.375 338.1328125 C191.08203125 339.4375 191.08203125 339.4375 189.1875 341.0078125 C185.22319705 344.37533867 181.37923343 347.85040037 177.5625 351.3828125 C176.99958252 351.90214355 176.43666504 352.42147461 175.85668945 352.95654297 C172.6681471 355.90608802 172.6681471 355.90608802 169.61328125 358.9921875 C168.375 360.1328125 168.375 360.1328125 166.375 360.1328125 C166.375 360.7928125 166.375 361.4528125 166.375 362.1328125 C162.91346154 365.1328125 162.91346154 365.1328125 160.375 365.1328125 C160.375 365.7928125 160.375 366.4528125 160.375 367.1328125 C158.94140625 368.578125 158.94140625 368.578125 156.9375 370.2578125 C152.95878677 373.62659821 149.0979439 377.1032107 145.2578125 380.62890625 C143.375 382.1328125 143.375 382.1328125 141.375 382.1328125 C141.375 382.7928125 141.375 383.4528125 141.375 384.1328125 C139.625 385.859375 139.625 385.859375 137.375 387.7578125 C136.26125 388.70527344 136.26125 388.70527344 135.125 389.671875 C134.5475 390.15398437 133.97 390.63609375 133.375 391.1328125 C133.705 392.1228125 134.035 393.1128125 134.375 394.1328125 C132.75 395.3203125 132.75 395.3203125 130.375 396.1328125 C125.85414782 394.24065807 122.27075489 391.67173285 118.5 388.5703125 C117.04980469 387.39275391 117.04980469 387.39275391 115.5703125 386.19140625 C114.48363281 385.17240234 114.48363281 385.17240234 113.375 384.1328125 C113.375 383.4728125 113.375 382.8128125 113.375 382.1328125 C112.715 382.1328125 112.055 382.1328125 111.375 382.1328125 C111.375 381.4728125 111.375 380.8128125 111.375 380.1328125 C110.81941406 379.895625 110.26382813 379.6584375 109.69140625 379.4140625 C106.83128879 377.8320751 104.70551331 375.85618535 102.3125 373.6328125 C99.71579665 371.22744519 97.32393694 369.09877046 94.375 367.1328125 C94.375 366.4728125 94.375 365.8128125 94.375 365.1328125 C93.75625 364.8234375 93.1375 364.5140625 92.5 364.1953125 C91.125 363.5078125 89.75 362.8203125 88.375 362.1328125 C88.375 361.4728125 88.375 360.8128125 88.375 360.1328125 C87.81039062 359.89691406 87.24578125 359.66101563 86.6640625 359.41796875 C83.85428037 357.84046308 81.97880949 355.89229964 79.75 353.5703125 C76.86429319 350.44239196 76.86429319 350.44239196 73.375 348.1328125 C73.375 347.4728125 73.375 346.8128125 73.375 346.1328125 C72.79234375 345.8646875 72.2096875 345.5965625 71.609375 345.3203125 C69.34713399 344.11800259 67.56923682 342.79455337 65.625 341.1328125 C65.01140625 340.6171875 64.3978125 340.1015625 63.765625 339.5703125 C62.375 338.1328125 62.375 338.1328125 62.375 336.1328125 C61.715 336.1328125 61.055 336.1328125 60.375 336.1328125 C60.375 335.4728125 60.375 334.8128125 60.375 334.1328125 C59.818125 333.8853125 59.26125 333.6378125 58.6875 333.3828125 C55.95089087 331.90356432 53.69849131 330.19813811 51.375 328.1328125 C51.375 327.4728125 51.375 326.8128125 51.375 326.1328125 C50.82714844 325.91367187 50.27929688 325.69453125 49.71484375 325.46875 C46.62775408 323.70617126 44.37228997 321.30312251 41.9375 318.7578125 C39.24696103 315.96651826 36.58999998 313.30091948 33.52734375 310.90625 C32.81707031 310.32101562 32.10679687 309.73578125 31.375 309.1328125 C31.375 308.4728125 31.375 307.8128125 31.375 307.1328125 C30.715 307.1328125 30.055 307.1328125 29.375 307.1328125 C29.375 306.4728125 29.375 305.8128125 29.375 305.1328125 C28.81683594 304.90335937 28.25867188 304.67390625 27.68359375 304.4375 C24.74904392 302.77905729 22.77359647 300.68389728 20.4375 298.2578125 C17.89341348 295.62328705 15.44931879 293.19074199 12.55859375 290.9375 C11.83800781 290.34195312 11.11742187 289.74640625 10.375 289.1328125 C10.375 288.4728125 10.375 287.8128125 10.375 287.1328125 C9.715 287.1328125 9.055 287.1328125 8.375 287.1328125 C5.75 284.7578125 5.75 284.7578125 3.375 282.1328125 C3.375 281.4728125 3.375 280.8128125 3.375 280.1328125 C2.715 280.1328125 2.055 280.1328125 1.375 280.1328125 C-0.25 278.7578125 -0.25 278.7578125 -1.625 277.1328125 C-1.625 276.4728125 -1.625 275.8128125 -1.625 275.1328125 C-2.285 275.1328125 -2.945 275.1328125 -3.625 275.1328125 C-5.2109375 273.5234375 -5.2109375 273.5234375 -7 271.3828125 C-8.96257727 269.06377548 -10.8838295 266.88061966 -13.0625 264.7578125 C-14.625 263.1328125 -14.625 263.1328125 -14.625 261.1328125 C-15.285 261.1328125 -15.945 261.1328125 -16.625 261.1328125 C-16.625 260.4728125 -16.625 259.8128125 -16.625 259.1328125 C-17.285 259.1328125 -17.945 259.1328125 -18.625 259.1328125 C-20.24609375 257.48828125 -20.24609375 257.48828125 -22.0625 255.3203125 C-24.59839332 252.30817985 -24.59839332 252.30817985 -27.34765625 249.49609375 C-28.625 248.1328125 -28.625 248.1328125 -28.625 246.1328125 C-29.285 246.1328125 -29.945 246.1328125 -30.625 246.1328125 C-32.21033702 244.41948496 -33.72041215 242.63592203 -35.1875 240.8203125 C-35.99316406 239.83417969 -36.79882812 238.84804688 -37.62890625 237.83203125 C-39.625 235.1328125 -39.625 235.1328125 -40.625 232.1328125 C-41.285 232.1328125 -41.945 232.1328125 -42.625 232.1328125 C-47.625 226.65662202 -47.625 226.65662202 -47.625 224.1328125 C-48.285 224.1328125 -48.945 224.1328125 -49.625 224.1328125 C-49.955 222.8128125 -50.285 221.4928125 -50.625 220.1328125 C-51.285 220.1328125 -51.945 220.1328125 -52.625 220.1328125 C-53.9140625 218.671875 -53.9140625 218.671875 -55.25 216.7578125 C-55.69601563 216.13132812 -56.14203125 215.50484375 -56.6015625 214.859375 C-57.625 213.1328125 -57.625 213.1328125 -57.625 211.1328125 C-58.285 211.1328125 -58.945 211.1328125 -59.625 211.1328125 C-59.625 210.4728125 -59.625 209.8128125 -59.625 209.1328125 C-60.285 208.8028125 -60.945 208.4728125 -61.625 208.1328125 C-62.25 206.0703125 -62.25 206.0703125 -62.625 204.1328125 C-63.285 204.1328125 -63.945 204.1328125 -64.625 204.1328125 C-67.625 199.74819712 -67.625 199.74819712 -67.625 197.1328125 C-68.285 197.1328125 -68.945 197.1328125 -69.625 197.1328125 C-69.625 197.7928125 -69.625 198.4528125 -69.625 199.1328125 C-70.285 199.1328125 -70.945 199.1328125 -71.625 199.1328125 C-70.965 197.4828125 -70.305 195.8328125 -69.625 194.1328125 C-70.285 194.1328125 -70.945 194.1328125 -71.625 194.1328125 C-71.625 193.4728125 -71.625 192.8128125 -71.625 192.1328125 C-72.285 192.1328125 -72.945 192.1328125 -73.625 192.1328125 C-73.955 192.7928125 -74.285 193.4528125 -74.625 194.1328125 C-74.439375 193.5553125 -74.25375 192.9778125 -74.0625 192.3828125 C-73.58476454 189.92588725 -73.86770636 188.48883716 -74.625 186.1328125 C-75.285 186.1328125 -75.945 186.1328125 -76.625 186.1328125 C-76.625 185.1428125 -76.625 184.1528125 -76.625 183.1328125 C-77.285 183.1328125 -77.945 183.1328125 -78.625 183.1328125 C-79.12 182.1221875 -79.615 181.1115625 -80.125 180.0703125 C-81.55346671 177.19801922 -83.03465972 174.36111713 -84.56640625 171.54296875 C-93.625 154.86959986 -93.625 154.86959986 -93.625 148.1328125 C-94.285 148.1328125 -94.945 148.1328125 -95.625 148.1328125 C-96.08492316 146.32071527 -96.54284036 144.50810889 -97 142.6953125 C-97.25523438 141.68597656 -97.51046875 140.67664063 -97.7734375 139.63671875 C-98.05445313 138.48042969 -98.33546875 137.32414063 -98.625 136.1328125 C-98.89292358 135.22281494 -98.89292358 135.22281494 -99.16625977 134.29443359 C-101.06606073 127.2278842 -100.89342951 120.09420793 -100.83081055 112.83691406 C-100.81230976 110.60991208 -100.810303 108.38332157 -100.81054688 106.15625 C-100.77280347 95.28061597 -100.77280347 95.28061597 -99.625 94.1328125 C-99.39271696 92.17499834 -99.16181473 90.21699902 -98.94140625 88.2578125 C-98.51820964 85.41560319 -97.58572093 82.83484012 -96.625 80.1328125 C-96.26393903 78.47193205 -95.92037827 76.80662269 -95.625 75.1328125 C-94.965 75.1328125 -94.305 75.1328125 -93.625 75.1328125 C-93.439375 74.0809375 -93.439375 74.0809375 -93.25 73.0078125 C-92.58661655 69.95624863 -91.65288045 67.07940312 -90.625 64.1328125 C-89.965 64.1328125 -89.305 64.1328125 -88.625 64.1328125 C-88.625 62.8128125 -88.625 61.4928125 -88.625 60.1328125 C-87.965 60.1328125 -87.305 60.1328125 -86.625 60.1328125 C-87.285 58.4828125 -87.945 56.8328125 -88.625 55.1328125 C-87.305 55.1328125 -85.985 55.1328125 -84.625 55.1328125 C-84.295 54.1428125 -83.965 53.1528125 -83.625 52.1328125 C-82.965 52.1328125 -82.305 52.1328125 -81.625 52.1328125 C-81.356875 51.3903125 -81.08875 50.6478125 -80.8125 49.8828125 C-79.67223249 47.24219301 -78.53119694 45.27728406 -76.625 43.1328125 C-75.965 43.1328125 -75.305 43.1328125 -74.625 43.1328125 C-74.315625 42.5140625 -74.00625 41.8953125 -73.6875 41.2578125 C-73 39.8828125 -72.3125 38.5078125 -71.625 37.1328125 C-70.965 37.1328125 -70.305 37.1328125 -69.625 37.1328125 C-69.295 36.1428125 -68.965 35.1528125 -68.625 34.1328125 C-67.965 34.1328125 -67.305 34.1328125 -66.625 34.1328125 C-66.625 33.4728125 -66.625 32.8128125 -66.625 32.1328125 C-65.1640625 30.625 -65.1640625 30.625 -63.25 29.0078125 C-62.62351563 28.46898438 -61.99703125 27.93015625 -61.3515625 27.375 C-59.625 26.1328125 -59.625 26.1328125 -57.625 26.1328125 C-57.625 25.4728125 -57.625 24.8128125 -57.625 24.1328125 C-55.45017875 22.46666793 -53.28770679 20.94311614 -51 19.4453125 C-50.32501465 18.99978027 -49.6500293 18.55424805 -48.95458984 18.09521484 C-42.42264208 13.86489957 -35.67383439 10.42051511 -28.625 7.1328125 C-27.81546875 6.72160156 -27.0059375 6.31039062 -26.171875 5.88671875 C-20.91438198 3.30525185 -15.8268832 2.31033965 -10.03125 1.52734375 C-0.71994264 0.00065212 -0.71994264 0.00065212 0 0 Z M130.375 392.1328125 C130.045 392.7928125 129.715 393.4528125 129.375 394.1328125 C130.035 394.1328125 130.695 394.1328125 131.375 394.1328125 C131.045 393.4728125 130.715 392.8128125 130.375 392.1328125 Z " fill="#B16041" transform="translate(128.625,75.8671875)"/>
<path d="M0 0 C1.9375 0.8125 1.9375 0.8125 4 2 C4.33 2.99 4.66 3.98 5 5 C5.66 5 6.32 5 7 5 C7 5.66 7 6.32 7 7 C7.99 7.33 8.98 7.66 10 8 C10 8.66 10 9.32 10 10 C10.66 10 11.32 10 12 10 C12 10.66 12 11.32 12 12 C12.99 12.33 13.98 12.66 15 13 C15 13.66 15 14.32 15 15 C15.66 15 16.32 15 17 15 C17 15.66 17 16.32 17 17 C17.99 17.33 18.98 17.66 20 18 C20 18.66 20 19.32 20 20 C20.66 20 21.32 20 22 20 C22 20.66 22 21.32 22 22 C23.32 22.66 24.64 23.32 26 24 C26 24.99 26 25.98 26 27 C24.2925002 25.71937515 22.62626404 24.38232443 21 23 C21 22.34 21 21.68 21 21 C20.34 21 19.68 21 19 21 C17.375 19.625 17.375 19.625 16 18 C16 17.34 16 16.68 16 16 C15.34 16 14.68 16 14 16 C12.375 14.625 12.375 14.625 11 13 C11 12.34 11 11.68 11 11 C10.34 11 9.68 11 9 11 C9 10.34 9 9.68 9 9 C8.01 8.67 7.02 8.34 6 8 C6 7.34 6 6.68 6 6 C5.34 6 4.68 6 4 6 C4 5.34 4 4.68 4 4 C3.34 4 2.68 4 2 4 C1.34 2.68 0.68 1.36 0 0 Z " fill="#B16041" transform="translate(120,348)"/>
<path d="M0 0 C0.33 0 0.66 0 1 0 C1 11.55 1 23.1 1 35 C0.67 35 0.34 35 0 35 C0 23.45 0 11.9 0 0 Z " fill="#B16041" transform="translate(486,170)"/>
<path d="M0 0 C0.33 0 0.66 0 1 0 C1 11.22 1 22.44 1 34 C0.67 34 0.34 34 0 34 C0 22.78 0 11.56 0 0 Z " fill="#B16041" transform="translate(25,170)"/>
<path d="M0 0 C10.56 0 21.12 0 32 0 C32 0.33 32 0.66 32 1 C21.44 1 10.88 1 0 1 C0 0.67 0 0.34 0 0 Z " fill="#B16041" transform="translate(359,73)"/>
<path d="M0 0 C10.56 0 21.12 0 32 0 C32 0.33 32 0.66 32 1 C21.44 1 10.88 1 0 1 C0 0.67 0 0.34 0 0 Z " fill="#B16041" transform="translate(121,73)"/>
<path d="M0 0 C0.99 0 1.98 0 3 0 C3 0.66 3 1.32 3 2 C5.73185596 3.30059064 5.73185596 3.30059064 9 4 C11.8552976 2.75528019 11.8552976 2.75528019 14 1 C14 1.66 14 2.32 14 3 C13.34 3 12.68 3 12 3 C12 3.66 12 4.32 12 5 C9.6875 6.125 9.6875 6.125 7 7 C6.01 6.34 5.02 5.68 4 5 C4 4.34 4 3.68 4 3 C3.34 3 2.68 3 2 3 C2 2.34 2 1.68 2 1 C1.34 0.67 0.68 0.34 0 0 Z " fill="#B16041" transform="translate(248,136)"/>
<path d="M0 0 C2.03833424 1.2739589 4.03852126 2.61061923 6 4 C6 4.66 6 5.32 6 6 C7.32 6.33 8.64 6.66 10 7 C10.33 8.32 10.66 9.64 11 11 C8.96166576 9.7260411 6.96147874 8.38938077 5 7 C5 6.34 5 5.68 5 5 C4.360625 4.731875 3.72125 4.46375 3.0625 4.1875 C1 3 1 3 0 0 Z " fill="#B16041" transform="translate(172,398)"/>
<path d="M0 0 C0.33 0 0.66 0 1 0 C1 2.64 1 5.28 1 8 C1.66 8 2.32 8 3 8 C3 10.31 3 12.62 3 15 C2.34 14.67 1.68 14.34 1 14 C-0.41904116 9.45906828 -0.09226843 4.7056901 0 0 Z " fill="#B16041" transform="translate(27,204)"/>
<path d="M0 0 C0.66 0 1.32 0 2 0 C1.67 0.99 1.34 1.98 1 3 C0.34 3 -0.32 3 -1 3 C-1 3.66 -1 4.32 -1 5 C-1.66 5 -2.32 5 -3 5 C-3 5.66 -3 6.32 -3 7 C-4.98 7.99 -4.98 7.99 -7 9 C-6.1875 7.0625 -6.1875 7.0625 -5 5 C-4.01 4.67 -3.02 4.34 -2 4 C-2 3.34 -2 2.68 -2 2 C-1.34 2 -0.68 2 0 2 C0 1.34 0 0.68 0 0 Z " fill="#B16041" transform="translate(372,366)"/>
<path d="M0 0 C0.66 0.33 1.32 0.66 2 1 C1.01 2.485 1.01 2.485 0 4 C-0.66 4 -1.32 4 -2 4 C-2 4.66 -2 5.32 -2 6 C-2.66 6 -3.32 6 -4 6 C-4.33 6.99 -4.66 7.98 -5 9 C-5.66 8.67 -6.32 8.34 -7 8 C-6.34 7.01 -5.68 6.02 -5 5 C-4.34 5 -3.68 5 -3 5 C-2.690625 4.360625 -2.38125 3.72125 -2.0625 3.0625 C-1 1 -1 1 0 0 Z " fill="#B16041" transform="translate(390,348)"/>
<path d="M0 0 C4.75 1.875 4.75 1.875 7 3 C7 3.66 7 4.32 7 5 C7.66 5.33 8.32 5.66 9 6 C6 6 6 6 4 5 C4 4.34 4 3.68 4 3 C2.68 2.34 1.36 1.68 0 1 C0 0.67 0 0.34 0 0 Z " fill="#B16041" transform="translate(245,465)"/>
<path d="M0 0 C0.66 0.33 1.32 0.66 2 1 C0.35 2.65 -1.3 4.3 -3 6 C-3.66 5.67 -4.32 5.34 -5 5 C-4.67 4.34 -4.34 3.68 -4 3 C-3.34 3 -2.68 3 -2 3 C-2 2.34 -2 1.68 -2 1 C-1.34 0.67 -0.68 0.34 0 0 Z " fill="#B16041" transform="translate(363,375)"/>
<path d="M0 0 C1.32 0.33 2.64 0.66 4 1 C4 1.66 4 2.32 4 3 C4.66 3 5.32 3 6 3 C6.33 3.99 6.66 4.98 7 6 C3.63279613 4.60667426 2.0140476 3.0210714 0 0 Z " fill="#B16041" transform="translate(147,375)"/>
<path d="M0 0 C0.33 0.99 0.66 1.98 1 3 C0.34 3 -0.32 3 -1 3 C-1.66 4.32 -2.32 5.64 -3 7 C-3.99 7 -4.98 7 -6 7 C-4.71937515 5.2925002 -3.38232443 3.62626404 -2 2 C-1.34 2 -0.68 2 0 2 C0 1.34 0 0.68 0 0 Z " fill="#B16041" transform="translate(416,320)"/>
<path d="M0 0 C0.66 0.66 1.32 1.32 2 2 C0.68 2 -0.64 2 -2 2 C-2 2.66 -2 3.32 -2 4 C-3.32 4 -4.64 4 -6 4 C-6 3.34 -6 2.68 -6 2 C-4.02 1.34 -2.04 0.68 0 0 Z " fill="#B16041" transform="translate(102,79)"/>
<path d="M0 0 C2.31 0.66 4.62 1.32 7 2 C7 2.66 7 3.32 7 4 C5.68 4 4.36 4 3 4 C3 3.34 3 2.68 3 2 C1.68 1.67 0.36 1.34 -1 1 C-0.67 0.67 -0.34 0.34 0 0 Z " fill="#B16041" transform="translate(409,79)"/>
<path d="M0 0 C1.98 0 3.96 0 6 0 C6.33 0.66 6.66 1.32 7 2 C4.36 2 1.72 2 -1 2 C-0.67 1.34 -0.34 0.68 0 0 Z " fill="#B16041" transform="translate(391,74)"/>
<path d="M0 0 C1.98 0 3.96 0 6 0 C6.33 0.66 6.66 1.32 7 2 C4.36 2 1.72 2 -1 2 C-0.67 1.34 -0.34 0.68 0 0 Z " fill="#B16041" transform="translate(353,74)"/>
<path d="M0 0 C1.98 0 3.96 0 6 0 C6.33 0.66 6.66 1.32 7 2 C4.36 2 1.72 2 -1 2 C-0.67 1.34 -0.34 0.68 0 0 Z " fill="#B16041" transform="translate(153,74)"/>
<path d="M0 0 C1.98 0 3.96 0 6 0 C6.33 0.66 6.66 1.32 7 2 C4.36 2 1.72 2 -1 2 C-0.67 1.34 -0.34 0.68 0 0 Z " fill="#B16041" transform="translate(115,74)"/>
<path d="M0 0 C0.33 0.66 0.66 1.32 1 2 C0.34 2 -0.32 2 -1 2 C-1 2.66 -1 3.32 -1 4 C-2.98 4.99 -2.98 4.99 -5 6 C-4.75 4.125 -4.75 4.125 -4 2 C-1.9375 0.75 -1.9375 0.75 0 0 Z " fill="#B16041" transform="translate(334,403)"/>
<path d="M0 0 C0.33 0.66 0.66 1.32 1 2 C1.66 2 2.32 2 3 2 C3 2.66 3 3.32 3 4 C3.66 4 4.32 4 5 4 C5 4.66 5 5.32 5 6 C3.0625 5.25 3.0625 5.25 1 4 C0.25 1.875 0.25 1.875 0 0 Z " fill="#B16041" transform="translate(78,300)"/>
<path d="M0 0 C0.99 0.495 0.99 0.495 2 1 C2 2.65 2 4.3 2 6 C1.01 6.495 1.01 6.495 0 7 C0 4.69 0 2.38 0 0 Z " fill="#B16041" transform="translate(482,212)"/>
<path d="M0 0 C0.66 0 1.32 0 2 0 C2 1.98 2 3.96 2 6 C1.34 6 0.68 6 0 6 C0 4.02 0 2.04 0 0 Z " fill="#B16041" transform="translate(482,156)"/>
<path d="M0 0 C2.96175123 0.61277612 4.38058783 1.25372522 7 3 C4.36 2.67 1.72 2.34 -1 2 C-0.67 1.34 -0.34 0.68 0 0 Z " fill="#B16041" transform="translate(175,81)"/>
<path d="M0 0 C0.33 0.99 0.66 1.98 1 3 C-0.32 3.99 -1.64 4.98 -3 6 C-3.33 5.34 -3.66 4.68 -4 4 C-3.34 4 -2.68 4 -2 4 C-2 3.34 -2 2.68 -2 2 C-1.34 2 -0.68 2 0 2 C0 1.34 0 0.68 0 0 Z " fill="#B16041" transform="translate(397,340)"/>
<path d="M0 0 C0.66 0 1.32 0 2 0 C2 2 2 2 0.625 3.625 C-1 5 -1 5 -3 5 C-1.125 1.125 -1.125 1.125 0 0 Z " fill="#B16041" transform="translate(405,332)"/>
<path d="M0 0 C1.9375 0.8125 1.9375 0.8125 4 2 C4.33 2.99 4.66 3.98 5 5 C3 5 3 5 1.375 3.625 C0 2 0 2 0 0 Z " fill="#B16041" transform="translate(105,332)"/>
<path d="M0 0 C0.66 0 1.32 0 2 0 C3.38938077 1.96147874 4.7260411 3.96166576 6 6 C3.37812506 4.95125002 2.20628639 4.35068687 0.75 1.875 C0.5025 1.25625 0.255 0.6375 0 0 Z " fill="#B16041" transform="translate(96,322)"/>
<path d="M0 0 C3 3.75 3 3.75 3 6 C2.34 6 1.68 6 1 6 C0.34 4.35 -0.32 2.7 -1 1 C-0.67 0.67 -0.34 0.34 0 0 Z " fill="#B16041" transform="translate(46,253)"/>
<path d="M0 0 C0.33 0 0.66 0 1 0 C1 1.98 1 3.96 1 6 C0.34 6 -0.32 6 -1 6 C-1.042721 4.33388095 -1.04063832 2.66617115 -1 1 C-0.67 0.67 -0.34 0.34 0 0 Z " fill="#B16041" transform="translate(29,156)"/>
<path d="M0 0 C1.98 0 3.96 0 6 0 C5.67 0.66 5.34 1.32 5 2 C3.35 2 1.7 2 0 2 C0 1.34 0 0.68 0 0 Z " fill="#B16041" transform="translate(398,76)"/>
<path d="M0 0 C1.98 0 3.96 0 6 0 C6 0.66 6 1.32 6 2 C4.35 2 2.7 2 1 2 C0.67 1.34 0.34 0.68 0 0 Z " fill="#B16041" transform="translate(346,76)"/>
<path d="M0 0 C1.98 0 3.96 0 6 0 C5.67 0.66 5.34 1.32 5 2 C3.35 2 1.7 2 0 2 C0 1.34 0 0.68 0 0 Z " fill="#B16041" transform="translate(160,76)"/>
<path d="M0 0 C1.98 0 3.96 0 6 0 C6 0.66 6 1.32 6 2 C4.35 2 2.7 2 1 2 C0.67 1.34 0.34 0.68 0 0 Z " fill="#B16041" transform="translate(108,76)"/>
<path d="M0 0 C0.33 0.99 0.66 1.98 1 3 C0.01 3.99 -0.98 4.98 -2 6 C-2.66 5.67 -3.32 5.34 -4 5 C-2.68 3.35 -1.36 1.7 0 0 Z " fill="#B16041" transform="translate(433,300)"/>
<path d="M0 0 C0.66 0 1.32 0 2 0 C1.34 1.65 0.68 3.3 0 5 C-0.66 4.67 -1.32 4.34 -2 4 C-2 3.34 -2 2.68 -2 2 C-1.34 2 -0.68 2 0 2 C0 1.34 0 0.68 0 0 Z " fill="#B16041" transform="translate(441,289)"/>
<path d="M0 0 C0.66 0.33 1.32 0.66 2 1 C1.01 2.485 1.01 2.485 0 4 C-0.66 4 -1.32 4 -2 4 C-2.33 4.66 -2.66 5.32 -3 6 C-3 5.01 -3 4.02 -3 3 C-2.34 3 -1.68 3 -1 3 C-0.67 2.01 -0.34 1.02 0 0 Z " fill="#B16041" transform="translate(57,109)"/>
<path d="M0 0 C0.99 0.33 1.98 0.66 3 1 C3 1.66 3 2.32 3 3 C3.66 3 4.32 3 5 3 C4.67 3.99 4.34 4.98 4 6 C4 5.34 4 4.68 4 4 C3.34 4 2.68 4 2 4 C1.34 2.68 0.68 1.36 0 0 Z " fill="#B16041" transform="translate(453,109)"/>
<path d="M0 0 C1.65 1.65 3.3 3.3 5 5 C3.0625 4.1875 3.0625 4.1875 1 3 C0.67 2.01 0.34 1.02 0 0 Z " fill="#B16041" transform="translate(206,429)"/>
<path d="M0 0 C0 0.99 0 1.98 0 3 C-1.98 3.99 -1.98 3.99 -4 5 C-2.68 3.35 -1.36 1.7 0 0 Z " fill="#B16041" transform="translate(305,429)"/>
<path d="M0 0 C0 0.99 0 1.98 0 3 C-1.98 3.99 -1.98 3.99 -4 5 C-2.68 3.35 -1.36 1.7 0 0 Z " fill="#B16041" transform="translate(339,398)"/>
<path d="M0 0 C0.66 0 1.32 0 2 0 C2 1.65 2 3.3 2 5 C1.34 4.67 0.68 4.34 0 4 C0 2.68 0 1.36 0 0 Z " fill="#B16041" transform="translate(480,219)"/>
<path d="M0 0 C0.66 0 1.32 0 2 0 C1.67 1.65 1.34 3.3 1 5 C0.67 5 0.34 5 0 5 C0 3.35 0 1.7 0 0 Z " fill="#B16041" transform="translate(30,219)"/>
<path d="M0 0 C0.33 0 0.66 0 1 0 C1 2.97 1 5.94 1 9 C0.67 9 0.34 9 0 9 C0 6.03 0 3.06 0 0 Z " fill="#B16041" transform="translate(484,204)"/>
<path d="M0 0 C0.33 0 0.66 0 1 0 C1 1.65 1 3.3 1 5 C0.34 5 -0.32 5 -1 5 C-0.67 3.35 -0.34 1.7 0 0 Z " fill="#B16041" transform="translate(481,151)"/>
<path d="M0 0 C0.99 0.495 0.99 0.495 2 1 C2 2.32 2 3.64 2 5 C1.34 5 0.68 5 0 5 C0 3.35 0 1.7 0 0 Z " fill="#B16041" transform="translate(30,151)"/>
<path d="M0 0 C0.66 0 1.32 0 2 0 C1.67 0.99 1.34 1.98 1 3 C0.01 3.33 -0.98 3.66 -2 4 C-2 3.34 -2 2.68 -2 2 C-1.34 2 -0.68 2 0 2 C0 1.34 0 0.68 0 0 Z " fill="#B16041" transform="translate(297,436)"/>
<path d="M0 0 C0.66 0 1.32 0 2 0 C2 0.66 2 1.32 2 2 C2.66 2.33 3.32 2.66 4 3 C3.01 3 2.02 3 1 3 C0.67 2.01 0.34 1.02 0 0 Z " fill="#B16041" transform="translate(115,342)"/>
<path d="M0 0 C1.5 1.375 1.5 1.375 3 3 C3 3.66 3 4.32 3 5 C2.34 5 1.68 5 1 5 C0.67 3.35 0.34 1.7 0 0 Z " fill="#B16041" transform="translate(85,308)"/>
<path d="M0 0 C0.33 0.99 0.66 1.98 1 3 C0.67 3.66 0.34 4.32 0 5 C-0.66 5 -1.32 5 -2 5 C-1.34 3.35 -0.68 1.7 0 0 Z " fill="#B16041" transform="translate(426,308)"/>
<path d="M0 0 C0.66 0 1.32 0 2 0 C2 1.32 2 2.64 2 4 C1.34 4 0.68 4 0 4 C0 2.68 0 1.36 0 0 Z " fill="#B16041" transform="translate(475,233)"/>
<path d="M0 0 C0.66 0 1.32 0 2 0 C2 1.32 2 2.64 2 4 C1.34 4 0.68 4 0 4 C0 2.68 0 1.36 0 0 Z " fill="#B16041" transform="translate(35,233)"/>
<path d="M0 0 C0.33 0 0.66 0 1 0 C1 2.64 1 5.28 1 8 C0.67 8 0.34 8 0 8 C0 5.36 0 2.72 0 0 Z " fill="#B16041" transform="translate(484,162)"/>
<path d="M0 0 C0.33 0 0.66 0 1 0 C1 2.64 1 5.28 1 8 C0.67 8 0.34 8 0 8 C0 5.36 0 2.72 0 0 Z " fill="#B16041" transform="translate(27,162)"/>
<path d="M0 0 C0.66 0 1.32 0 2 0 C2 0.66 2 1.32 2 2 C2.66 2.33 3.32 2.66 4 3 C2.68 2.67 1.36 2.34 0 2 C0 1.34 0 0.68 0 0 Z " fill="#B16041" transform="translate(213,436)"/>
<path d="M0 0 C1.98 0.99 1.98 0.99 4 2 C3.67 2.66 3.34 3.32 3 4 C2.01 3.34 1.02 2.68 0 2 C0 1.34 0 0.68 0 0 Z " fill="#B16041" transform="translate(198,422)"/>
<path d="M0 0 C0 0.99 0 1.98 0 3 C-0.99 3.33 -1.98 3.66 -3 4 C-3 3.34 -3 2.68 -3 2 C-2.01 1.34 -1.02 0.68 0 0 Z " fill="#B16041" transform="translate(313,422)"/>
<path d="M0 0 C0.66 0 1.32 0 2 0 C2 0.66 2 1.32 2 2 C0.68 2.33 -0.64 2.66 -2 3 C-1.34 2.01 -0.68 1.02 0 0 Z " fill="#B16041" transform="translate(347,390)"/>
<path d="M0 0 C0.66 0 1.32 0 2 0 C1.67 1.32 1.34 2.64 1 4 C0.67 2.68 0.34 1.36 0 0 Z " fill="#B16041" transform="translate(477,229)"/>
<path d="M0 0 C0.66 0 1.32 0 2 0 C1.67 1.32 1.34 2.64 1 4 C0.67 2.68 0.34 1.36 0 0 Z " fill="#B16041" transform="translate(33,229)"/>
<path d="M0 0 C0.99 0.495 0.99 0.495 2 1 C2 1.99 2 2.98 2 4 C1.34 4 0.68 4 0 4 C0 2.68 0 1.36 0 0 Z " fill="#B16041" transform="translate(477,143)"/>
<path d="M0 0 C0.33 1.32 0.66 2.64 1 4 C0.34 4 -0.32 4 -1 4 C-0.67 2.68 -0.34 1.36 0 0 Z " fill="#B16041" transform="translate(34,143)"/>
<path d="M0 0 C1.32 0.33 2.64 0.66 4 1 C2.68 1.33 1.36 1.66 0 2 C0 1.34 0 0.68 0 0 Z " fill="#B16041" transform="translate(334,81)"/>
<path d="M0 0 C0.99 0.33 1.98 0.66 3 1 C3 1.33 3 1.66 3 2 C1.35 2 -0.3 2 -2 2 C-1.34 1.34 -0.68 0.68 0 0 Z " fill="#B16041" transform="translate(339,79)"/>
<path d="M0 0 C1.32 0.66 2.64 1.32 4 2 C2.35 2 0.7 2 -1 2 C-0.67 1.34 -0.34 0.68 0 0 Z " fill="#B16041" transform="translate(171,79)"/>
<path d="M0 0 C1.98 0 3.96 0 6 0 C6 0.33 6 0.66 6 1 C4.02 1 2.04 1 0 1 C0 0.67 0 0.34 0 0 Z " fill="#B16041" transform="translate(253,472)"/>
<path d="M0 0 C0.66 0.33 1.32 0.66 2 1 C0.02 1.99 0.02 1.99 -2 3 C-1.34 2.01 -0.68 1.02 0 0 Z " fill="#B16041" transform="translate(265,465)"/>
<path d="M0 0 C0.66 0.33 1.32 0.66 2 1 C0.02 1.99 0.02 1.99 -2 3 C-1.34 2.01 -0.68 1.02 0 0 Z " fill="#B16041" transform="translate(284,448)"/>
<path d="M0 0 C1.98 0.99 1.98 0.99 4 2 C3.01 2 2.02 2 1 2 C0.67 1.34 0.34 0.68 0 0 Z " fill="#B16041" transform="translate(226,448)"/>
<path d="M0 0 C1.98 0.99 1.98 0.99 4 2 C3.01 2 2.02 2 1 2 C0.67 1.34 0.34 0.68 0 0 Z " fill="#B16041" transform="translate(194,419)"/>
<path d="M0 0 C0.99 0.33 1.98 0.66 3 1 C3 1.66 3 2.32 3 3 C2.01 2.67 1.02 2.34 0 2 C0 1.34 0 0.68 0 0 Z " fill="#B16041" transform="translate(90,315)"/>
<path d="M0 0 C0 0.99 0 1.98 0 3 C-0.66 3 -1.32 3 -2 3 C-2 2.34 -2 1.68 -2 1 C-1.34 0.67 -0.68 0.34 0 0 Z " fill="#B16041" transform="translate(421,315)"/>
<path d="M0 0 C0.66 0 1.32 0 2 0 C2 0.99 2 1.98 2 3 C1.34 3 0.68 3 0 3 C0 2.01 0 1.02 0 0 Z " fill="#B16041" transform="translate(71,291)"/>
<path d="M0 0 C0.66 0 1.32 0 2 0 C2 0.99 2 1.98 2 3 C1.34 3 0.68 3 0 3 C0 2.01 0 1.02 0 0 Z " fill="#B16041" transform="translate(446,282)"/>
<path d="M0 0 C0.66 0 1.32 0 2 0 C2 0.99 2 1.98 2 3 C1.34 3 0.68 3 0 3 C0 2.01 0 1.02 0 0 Z " fill="#B16041" transform="translate(470,244)"/>
<path d="M0 0 C0.66 0 1.32 0 2 0 C2 0.99 2 1.98 2 3 C1.34 3 0.68 3 0 3 C0 2.01 0 1.02 0 0 Z " fill="#B16041" transform="translate(40,244)"/>
<path d="M0 0 C0.66 0 1.32 0 2 0 C2 0.99 2 1.98 2 3 C1.34 3 0.68 3 0 3 C0 2.01 0 1.02 0 0 Z " fill="#B16041" transform="translate(475,140)"/>
<path d="M0 0 C0.66 0 1.32 0 2 0 C2 0.99 2 1.98 2 3 C1.34 3 0.68 3 0 3 C0 2.01 0 1.02 0 0 Z " fill="#B16041" transform="translate(35,140)"/>
<path d="M0 0 C0.99 0 1.98 0 3 0 C3 0.66 3 1.32 3 2 C2.01 2 1.02 2 0 2 C0 1.34 0 0.68 0 0 Z " fill="#B16041" transform="translate(305,98)"/>
<path d="M0 0 C0.99 0 1.98 0 3 0 C3 0.66 3 1.32 3 2 C2.01 2 1.02 2 0 2 C0 1.34 0 0.68 0 0 Z " fill="#B16041" transform="translate(204,98)"/>
<path d="M0 0 C0.99 0 1.98 0 3 0 C3 0.66 3 1.32 3 2 C2.01 2 1.02 2 0 2 C0 1.34 0 0.68 0 0 Z " fill="#B16041" transform="translate(321,88)"/>
<path d="M0 0 C0.99 0 1.98 0 3 0 C3 0.66 3 1.32 3 2 C2.01 2 1.02 2 0 2 C0 1.34 0 0.68 0 0 Z " fill="#B16041" transform="translate(188,88)"/>
<path d="M0 0 C0.99 0 1.98 0 3 0 C3 0.66 3 1.32 3 2 C2.01 2 1.02 2 0 2 C0 1.34 0 0.68 0 0 Z " fill="#B16041" transform="translate(423,86)"/>
<path d="M0 0 C0.99 0 1.98 0 3 0 C3 0.66 3 1.32 3 2 C2.01 2 1.02 2 0 2 C0 1.34 0 0.68 0 0 Z " fill="#B16041" transform="translate(324,86)"/>
<path d="M0 0 C0.99 0 1.98 0 3 0 C3 0.66 3 1.32 3 2 C2.01 2 1.02 2 0 2 C0 1.34 0 0.68 0 0 Z " fill="#B16041" transform="translate(185,86)"/>
<path d="M0 0 C0.66 0 1.32 0 2 0 C1.67 0.99 1.34 1.98 1 3 C0.67 2.01 0.34 1.02 0 0 Z " fill="#B16041" transform="translate(460,262)"/>
<path d="M0 0 C0.66 0 1.32 0 2 0 C1.67 0.99 1.34 1.98 1 3 C0.67 2.01 0.34 1.02 0 0 Z " fill="#B16041" transform="translate(50,262)"/>
<path d="M0 0 C0.66 0 1.32 0 2 0 C1.67 0.99 1.34 1.98 1 3 C0.67 2.01 0.34 1.02 0 0 Z " fill="#B16041" transform="translate(465,254)"/>
<path d="M0 0 C0.33 0 0.66 0 1 0 C1 1.65 1 3.3 1 5 C0.67 5 0.34 5 0 5 C0 3.35 0 1.7 0 0 Z " fill="#B16041" transform="translate(479,224)"/>
<path d="M0 0 C0.33 0 0.66 0 1 0 C1 1.65 1 3.3 1 5 C0.67 5 0.34 5 0 5 C0 3.35 0 1.7 0 0 Z " fill="#B16041" transform="translate(32,224)"/>
<path d="M0 0 C0.66 0 1.32 0 2 0 C2 0.66 2 1.32 2 2 C1.01 1.67 0.02 1.34 -1 1 C-0.67 0.67 -0.34 0.34 0 0 Z " fill="#B16041" transform="translate(299,103)"/>
<path d="M0 0 C0.99 0.33 1.98 0.66 3 1 C2.01 1.33 1.02 1.66 0 2 C0 1.34 0 0.68 0 0 Z " fill="#B16041" transform="translate(211,103)"/>
<path d="M0 0 C0.99 0.33 1.98 0.66 3 1 C2.01 1.33 1.02 1.66 0 2 C0 1.34 0 0.68 0 0 Z " fill="#B16041" transform="translate(431,91)"/>
<path d="M0 0 C0.66 0 1.32 0 2 0 C2 0.66 2 1.32 2 2 C1.01 1.67 0.02 1.34 -1 1 C-0.67 0.67 -0.34 0.34 0 0 Z " fill="#B16041" transform="translate(316,91)"/>
<path d="M0 0 C0.99 0.33 1.98 0.66 3 1 C2.01 1.33 1.02 1.66 0 2 C0 1.34 0 0.68 0 0 Z " fill="#B16041" transform="translate(194,91)"/>
<path d="M0 0 C0.66 0 1.32 0 2 0 C2 0.66 2 1.32 2 2 C1.01 1.67 0.02 1.34 -1 1 C-0.67 0.67 -0.34 0.34 0 0 Z " fill="#B16041" transform="translate(79,91)"/>
<path d="M0 0 C0.99 0.33 1.98 0.66 3 1 C2.01 1.33 1.02 1.66 0 2 C0 1.34 0 0.68 0 0 Z " fill="#B16041" transform="translate(426,88)"/>
<path d="M0 0 C0.99 0 1.98 0 3 0 C3 0.66 3 1.32 3 2 C2.01 1.67 1.02 1.34 0 1 C0 0.67 0 0.34 0 0 Z " fill="#B16041" transform="translate(83,88)"/>
<path d="M0 0 C0.66 0 1.32 0 2 0 C2 0.66 2 1.32 2 2 C1.01 1.67 0.02 1.34 -1 1 C-0.67 0.67 -0.34 0.34 0 0 Z " fill="#B16041" transform="translate(87,86)"/>
<path d="M0 0 C1.32 0.33 2.64 0.66 4 1 C2.68 1.33 1.36 1.66 0 2 C0 1.34 0 0.68 0 0 Z " fill="#B16041" transform="translate(416,83)"/>
<path d="M0 0 C1.32 0 2.64 0 4 0 C3.67 0.66 3.34 1.32 3 2 C2.01 1.34 1.02 0.68 0 0 Z " fill="#B16041" transform="translate(92,83)"/>
<path d="M0 0 C1.65 0 3.3 0 5 0 C5 0.33 5 0.66 5 1 C3.35 1 1.7 1 0 1 C0 0.67 0 0.34 0 0 Z " fill="#B16041" transform="translate(403,78)"/>
<path d="M0 0 C1.65 0 3.3 0 5 0 C5 0.33 5 0.66 5 1 C3.35 1 1.7 1 0 1 C0 0.67 0 0.34 0 0 Z " fill="#B16041" transform="translate(341,78)"/>
<path d="M0 0 C1.65 0 3.3 0 5 0 C5 0.33 5 0.66 5 1 C3.35 1 1.7 1 0 1 C0 0.67 0 0.34 0 0 Z " fill="#B16041" transform="translate(166,78)"/>
<path d="M0 0 C1.65 0 3.3 0 5 0 C5 0.33 5 0.66 5 1 C3.35 1 1.7 1 0 1 C0 0.67 0 0.34 0 0 Z " fill="#B16041" transform="translate(104,78)"/>
<path d="M0 0 C0.66 0 1.32 0 2 0 C2 0.66 2 1.32 2 2 C1.34 2 0.68 2 0 2 C0 1.34 0 0.68 0 0 Z " fill="#B16041" transform="translate(267,463)"/>
<path d="M0 0 C0.66 0 1.32 0 2 0 C2 0.66 2 1.32 2 2 C1.34 2 0.68 2 0 2 C0 1.34 0 0.68 0 0 Z " fill="#B16041" transform="translate(243,463)"/>
<path d="M0 0 C0.66 0 1.32 0 2 0 C2 0.66 2 1.32 2 2 C1.34 2 0.68 2 0 2 C0 1.34 0 0.68 0 0 Z " fill="#B16041" transform="translate(270,460)"/>
<path d="M0 0 C0.66 0 1.32 0 2 0 C2 0.66 2 1.32 2 2 C1.34 2 0.68 2 0 2 C0 1.34 0 0.68 0 0 Z " fill="#B16041" transform="translate(240,460)"/>
<path d="M0 0 C0.66 0 1.32 0 2 0 C2 0.66 2 1.32 2 2 C1.34 2 0.68 2 0 2 C0 1.34 0 0.68 0 0 Z " fill="#B16041" transform="translate(272,458)"/>
<path d="M0 0 C0.66 0 1.32 0 2 0 C2 0.66 2 1.32 2 2 C1.34 2 0.68 2 0 2 C0 1.34 0 0.68 0 0 Z " fill="#B16041" transform="translate(238,458)"/>
<path d="M0 0 C0.66 0 1.32 0 2 0 C2 0.66 2 1.32 2 2 C1.34 2 0.68 2 0 2 C0 1.34 0 0.68 0 0 Z " fill="#B16041" transform="translate(278,453)"/>
<path d="M0 0 C0.66 0 1.32 0 2 0 C2 0.66 2 1.32 2 2 C1.34 2 0.68 2 0 2 C0 1.34 0 0.68 0 0 Z " fill="#B16041" transform="translate(232,453)"/>
<path d="M0 0 C0.66 0 1.32 0 2 0 C2 0.66 2 1.32 2 2 C1.34 2 0.68 2 0 2 C0 1.34 0 0.68 0 0 Z " fill="#B16041" transform="translate(291,441)"/>
<path d="M0 0 C0.66 0 1.32 0 2 0 C2 0.66 2 1.32 2 2 C1.34 2 0.68 2 0 2 C0 1.34 0 0.68 0 0 Z " fill="#B16041" transform="translate(219,441)"/>
<path d="M0 0 C0.66 0 1.32 0 2 0 C2 0.66 2 1.32 2 2 C1.34 2 0.68 2 0 2 C0 1.34 0 0.68 0 0 Z " fill="#B16041" transform="translate(299,434)"/>
<path d="M0 0 C0.66 0 1.32 0 2 0 C2 0.66 2 1.32 2 2 C1.34 2 0.68 2 0 2 C0 1.34 0 0.68 0 0 Z " fill="#B16041" transform="translate(211,434)"/>
<path d="M0 0 C0.66 0 1.32 0 2 0 C2 0.66 2 1.32 2 2 C1.34 2 0.68 2 0 2 C0 1.34 0 0.68 0 0 Z " fill="#B16041" transform="translate(306,427)"/>
<path d="M0 0 C0.66 0 1.32 0 2 0 C2 0.66 2 1.32 2 2 C1.34 2 0.68 2 0 2 C0 1.34 0 0.68 0 0 Z " fill="#B16041" transform="translate(204,427)"/>
<path d="M0 0 C0.66 0 1.32 0 2 0 C2 0.66 2 1.32 2 2 C1.34 2 0.68 2 0 2 C0 1.34 0 0.68 0 0 Z " fill="#B16041" transform="translate(318,417)"/>
<path d="M0 0 C0.66 0 1.32 0 2 0 C2 0.66 2 1.32 2 2 C1.34 2 0.68 2 0 2 C0 1.34 0 0.68 0 0 Z " fill="#B16041" transform="translate(192,417)"/>
<path d="M0 0 C0.66 0 1.32 0 2 0 C2 0.66 2 1.32 2 2 C1.34 2 0.68 2 0 2 C0 1.34 0 0.68 0 0 Z " fill="#B16041" transform="translate(320,415)"/>
<path d="M0 0 C0.66 0 1.32 0 2 0 C2 0.66 2 1.32 2 2 C1.34 2 0.68 2 0 2 C0 1.34 0 0.68 0 0 Z " fill="#B16041" transform="translate(190,415)"/>
<path d="M0 0 C0.66 0 1.32 0 2 0 C2 0.66 2 1.32 2 2 C1.34 2 0.68 2 0 2 C0 1.34 0 0.68 0 0 Z " fill="#B16041" transform="translate(323,412)"/>
<path d="M0 0 C0.66 0 1.32 0 2 0 C2 0.66 2 1.32 2 2 C1.34 2 0.68 2 0 2 C0 1.34 0 0.68 0 0 Z " fill="#B16041" transform="translate(187,412)"/>
<path d="M0 0 C0.66 0 1.32 0 2 0 C2 0.66 2 1.32 2 2 C1.34 2 0.68 2 0 2 C0 1.34 0 0.68 0 0 Z " fill="#B16041" transform="translate(325,410)"/>
<path d="M0 0 C0.66 0 1.32 0 2 0 C2 0.66 2 1.32 2 2 C1.34 2 0.68 2 0 2 C0 1.34 0 0.68 0 0 Z " fill="#B16041" transform="translate(185,410)"/>
<path d="M0 0 C0.66 0 1.32 0 2 0 C2 0.66 2 1.32 2 2 C1.34 2 0.68 2 0 2 C0 1.34 0 0.68 0 0 Z " fill="#B16041" transform="translate(342,395)"/>
<path d="M0 0 C0.66 0 1.32 0 2 0 C2 0.66 2 1.32 2 2 C1.34 2 0.68 2 0 2 C0 1.34 0 0.68 0 0 Z " fill="#B16041" transform="translate(168,395)"/>
<path d="M0 0 C0.66 0 1.32 0 2 0 C2 0.66 2 1.32 2 2 C1.34 2 0.68 2 0 2 C0 1.34 0 0.68 0 0 Z " fill="#B16041" transform="translate(163,390)"/>
<path d="M0 0 C0.66 0 1.32 0 2 0 C2 0.66 2 1.32 2 2 C1.34 2 0.68 2 0 2 C0 1.34 0 0.68 0 0 Z " fill="#B16041" transform="translate(349,388)"/>
<path d="M0 0 C0.66 0 1.32 0 2 0 C2 0.66 2 1.32 2 2 C1.34 2 0.68 2 0 2 C0 1.34 0 0.68 0 0 Z " fill="#B16041" transform="translate(161,388)"/>
<path d="M0 0 C0.66 0 1.32 0 2 0 C2 0.66 2 1.32 2 2 C1.34 2 0.68 2 0 2 C0 1.34 0 0.68 0 0 Z " fill="#B16041" transform="translate(354,383)"/>
<path d="M0 0 C0.66 0 1.32 0 2 0 C2 0.66 2 1.32 2 2 C1.34 2 0.68 2 0 2 C0 1.34 0 0.68 0 0 Z " fill="#B16041" transform="translate(156,383)"/>
<path d="M0 0 C0.66 0 1.32 0 2 0 C2 0.66 2 1.32 2 2 C1.34 2 0.68 2 0 2 C0 1.34 0 0.68 0 0 Z " fill="#B16041" transform="translate(400,337)"/>
<path d="M0 0 C0.66 0 1.32 0 2 0 C2 0.66 2 1.32 2 2 C1.34 2 0.68 2 0 2 C0 1.34 0 0.68 0 0 Z " fill="#B16041" transform="translate(110,337)"/>
<path d="M0 0 C0.66 0 1.32 0 2 0 C2 0.66 2 1.32 2 2 C1.34 2 0.68 2 0 2 C0 1.34 0 0.68 0 0 Z " fill="#B16041" transform="translate(407,330)"/>
<path d="M0 0 C0.66 0 1.32 0 2 0 C2 0.66 2 1.32 2 2 C1.34 2 0.68 2 0 2 C0 1.34 0 0.68 0 0 Z " fill="#B16041" transform="translate(103,330)"/>
<path d="M0 0 C0.66 0 1.32 0 2 0 C2 0.66 2 1.32 2 2 C1.34 2 0.68 2 0 2 C0 1.34 0 0.68 0 0 Z " fill="#B16041" transform="translate(417,318)"/>
<path d="M0 0 C0.66 0 1.32 0 2 0 C2 0.66 2 1.32 2 2 C1.34 2 0.68 2 0 2 C0 1.34 0 0.68 0 0 Z " fill="#B16041" transform="translate(93,318)"/>
<path d="M0 0 C0.66 0 1.32 0 2 0 C2 0.66 2 1.32 2 2 C1.34 2 0.68 2 0 2 C0 1.34 0 0.68 0 0 Z " fill="#B16041" transform="translate(422,313)"/>
<path d="M0 0 C0.66 0 1.32 0 2 0 C2 0.66 2 1.32 2 2 C1.34 2 0.68 2 0 2 C0 1.34 0 0.68 0 0 Z " fill="#B16041" transform="translate(88,313)"/>
<path d="M0 0 C0.66 0 1.32 0 2 0 C2 0.66 2 1.32 2 2 C1.34 2 0.68 2 0 2 C0 1.34 0 0.68 0 0 Z " fill="#B16041" transform="translate(427,306)"/>
<path d="M0 0 C0.66 0 1.32 0 2 0 C2 0.66 2 1.32 2 2 C1.34 2 0.68 2 0 2 C0 1.34 0 0.68 0 0 Z " fill="#B16041" transform="translate(83,306)"/>
<path d="M0 0 C0.66 0 1.32 0 2 0 C2 0.66 2 1.32 2 2 C1.34 2 0.68 2 0 2 C0 1.34 0 0.68 0 0 Z " fill="#B16041" transform="translate(434,298)"/>
<path d="M0 0 C0.66 0 1.32 0 2 0 C2 0.66 2 1.32 2 2 C1.34 2 0.68 2 0 2 C0 1.34 0 0.68 0 0 Z " fill="#B16041" transform="translate(76,298)"/>
<path d="M0 0 C0.66 0 1.32 0 2 0 C2 0.66 2 1.32 2 2 C1.34 2 0.68 2 0 2 C0 1.34 0 0.68 0 0 Z " fill="#B16041" transform="translate(436,296)"/>
<path d="M0 0 C0.66 0 1.32 0 2 0 C2 0.66 2 1.32 2 2 C1.34 2 0.68 2 0 2 C0 1.34 0 0.68 0 0 Z " fill="#B16041" transform="translate(74,296)"/>
<path d="M0 0 C0.66 0 1.32 0 2 0 C2 0.66 2 1.32 2 2 C1.34 2 0.68 2 0 2 C0 1.34 0 0.68 0 0 Z " fill="#B16041" transform="translate(69,289)"/>
<path d="M0 0 C0.66 0 1.32 0 2 0 C2 0.66 2 1.32 2 2 C1.34 2 0.68 2 0 2 C0 1.34 0 0.68 0 0 Z " fill="#B16041" transform="translate(64,282)"/>
<path d="M0 0 C0.66 0 1.32 0 2 0 C2 0.66 2 1.32 2 2 C1.34 2 0.68 2 0 2 C0 1.34 0 0.68 0 0 Z " fill="#B16041" transform="translate(448,280)"/>
<path d="M0 0 C0.66 0 1.32 0 2 0 C2 0.66 2 1.32 2 2 C1.34 2 0.68 2 0 2 C0 1.34 0 0.68 0 0 Z " fill="#B16041" transform="translate(62,280)"/>
<path d="M0 0 C0.66 0 1.32 0 2 0 C2 0.66 2 1.32 2 2 C1.34 2 0.68 2 0 2 C0 1.34 0 0.68 0 0 Z " fill="#B16041" transform="translate(458,265)"/>
<path d="M0 0 C0.66 0 1.32 0 2 0 C2 0.66 2 1.32 2 2 C1.34 2 0.68 2 0 2 C0 1.34 0 0.68 0 0 Z " fill="#B16041" transform="translate(52,265)"/>
<path d="M0 0 C0.66 0 1.32 0 2 0 C2 0.66 2 1.32 2 2 C1.34 2 0.68 2 0 2 C0 1.34 0 0.68 0 0 Z " fill="#B16041" transform="translate(463,257)"/>
<path d="M0 0 C1 4 1 4 1 4 Z " fill="#B16041" transform="translate(467,250)"/>
<path d="M0 0 C1 4 1 4 1 4 Z " fill="#B16041" transform="translate(44,250)"/>
<path d="M0 0 C0.66 0 1.32 0 2 0 C1.67 0.99 1.34 1.98 1 3 C0.67 2.01 0.34 1.02 0 0 Z " fill="#B16041" transform="translate(468,247)"/>
<path d="M0 0 C0.99 0.495 0.99 0.495 2 1 C1.34 1.66 0.68 2.32 0 3 C0 2.01 0 1.02 0 0 Z " fill="#B16041" transform="translate(42,247)"/>
<path d="M0 0 C1 4 1 4 1 4 Z " fill="#B16041" transform="translate(472,240)"/>
<path d="M0 0 C1 4 1 4 1 4 Z " fill="#B16041" transform="translate(39,240)"/>
<path d="M0 0 C1 4 1 4 1 4 Z " fill="#B16041" transform="translate(474,237)"/>
<path d="M0 0 C1 4 1 4 1 4 Z " fill="#B16041" transform="translate(37,237)"/>
<path d="M0 0 C1 4 1 4 1 4 Z " fill="#B16041" transform="translate(479,147)"/>
<path d="M0 0 C1 4 1 4 1 4 Z " fill="#B16041" transform="translate(32,147)"/>
<path d="M0 0 C1 4 1 4 1 4 Z " fill="#B16041" transform="translate(474,136)"/>
<path d="M0 0 C1 4 1 4 1 4 Z " fill="#B16041" transform="translate(37,136)"/>
<path d="M0 0 C0 3 0 3 0 3 Z " fill="#B16041" transform="translate(469,128)"/>
<path d="M0 0 C0.66 0 1.32 0 2 0 C2 0.66 2 1.32 2 2 C1.34 2 0.68 2 0 2 C0 1.34 0 0.68 0 0 Z " fill="#B16041" transform="translate(269,129)"/>
<path d="M0 0 C0.66 0 1.32 0 2 0 C2 0.66 2 1.32 2 2 C1.34 2 0.68 2 0 2 C0 1.34 0 0.68 0 0 Z " fill="#B16041" transform="translate(241,129)"/>
<path d="M0 0 C0.66 0.66 1.32 1.32 2 2 C1.01 2.495 1.01 2.495 0 3 C0 2.01 0 1.02 0 0 Z " fill="#B16041" transform="translate(42,128)"/>
<path d="M0 0 C0.66 0.66 1.32 1.32 2 2 C1.01 2.495 1.01 2.495 0 3 C0 2.01 0 1.02 0 0 Z " fill="#B16041" transform="translate(465,123)"/>
<path d="M0 0 C0 3 0 3 0 3 Z " fill="#B16041" transform="translate(46,123)"/>
<path d="M0 0 C0.66 0 1.32 0 2 0 C2 0.66 2 1.32 2 2 C1.34 2 0.68 2 0 2 C0 1.34 0 0.68 0 0 Z " fill="#B16041" transform="translate(276,122)"/>
<path d="M0 0 C0.66 0 1.32 0 2 0 C2 0.66 2 1.32 2 2 C1.34 2 0.68 2 0 2 C0 1.34 0 0.68 0 0 Z " fill="#B16041" transform="translate(234,122)"/>
<path d="M0 0 C0.66 0 1.32 0 2 0 C2 0.66 2 1.32 2 2 C1.34 2 0.68 2 0 2 C0 1.34 0 0.68 0 0 Z " fill="#B16041" transform="translate(463,121)"/>
<path d="M0 0 C0.66 0 1.32 0 2 0 C2 0.66 2 1.32 2 2 C1.34 2 0.68 2 0 2 C0 1.34 0 0.68 0 0 Z " fill="#B16041" transform="translate(47,121)"/>
<path d="M0 0 C0.66 0 1.32 0 2 0 C2 0.66 2 1.32 2 2 C1.34 2 0.68 2 0 2 C0 1.34 0 0.68 0 0 Z " fill="#B16041" transform="translate(460,117)"/>
<path d="M0 0 C0.66 0 1.32 0 2 0 C2 0.66 2 1.32 2 2 C1.34 2 0.68 2 0 2 C0 1.34 0 0.68 0 0 Z " fill="#B16041" transform="translate(50,117)"/>
<path d="M0 0 C0.66 0 1.32 0 2 0 C2 0.66 2 1.32 2 2 C1.34 2 0.68 2 0 2 C0 1.34 0 0.68 0 0 Z " fill="#B16041" transform="translate(458,115)"/>
<path d="M0 0 C0.66 0 1.32 0 2 0 C2 0.66 2 1.32 2 2 C1.34 2 0.68 2 0 2 C0 1.34 0 0.68 0 0 Z " fill="#B16041" transform="translate(284,115)"/>
<path d="M0 0 C0.66 0 1.32 0 2 0 C2 0.66 2 1.32 2 2 C1.34 2 0.68 2 0 2 C0 1.34 0 0.68 0 0 Z " fill="#B16041" transform="translate(226,115)"/>
<path d="M0 0 C0.66 0 1.32 0 2 0 C2 0.66 2 1.32 2 2 C1.34 2 0.68 2 0 2 C0 1.34 0 0.68 0 0 Z " fill="#B16041" transform="translate(52,115)"/>
<path d="M0 0 C0.66 0 1.32 0 2 0 C2 0.66 2 1.32 2 2 C1.34 2 0.68 2 0 2 C0 1.34 0 0.68 0 0 Z " fill="#B16041" transform="translate(290,110)"/>
<path d="M0 0 C0.66 0 1.32 0 2 0 C2 0.66 2 1.32 2 2 C1.34 2 0.68 2 0 2 C0 1.34 0 0.68 0 0 Z " fill="#B16041" transform="translate(220,110)"/>
<path d="M0 0 C0.66 0 1.32 0 2 0 C2 0.66 2 1.32 2 2 C1.34 2 0.68 2 0 2 C0 1.34 0 0.68 0 0 Z " fill="#B16041" transform="translate(296,105)"/>
<path d="M0 0 C0.66 0 1.32 0 2 0 C2 0.66 2 1.32 2 2 C1.34 2 0.68 2 0 2 C0 1.34 0 0.68 0 0 Z " fill="#B16041" transform="translate(214,105)"/>
<path d="M0 0 C0.66 0 1.32 0 2 0 C2 0.66 2 1.32 2 2 C1.34 2 0.68 2 0 2 C0 1.34 0 0.68 0 0 Z " fill="#B16041" transform="translate(303,100)"/>
<path d="M0 0 C0.66 0 1.32 0 2 0 C2 0.66 2 1.32 2 2 C1.34 2 0.68 2 0 2 C0 1.34 0 0.68 0 0 Z " fill="#B16041" transform="translate(207,100)"/>
<path d="M0 0 C0.66 0 1.32 0 2 0 C2 0.66 2 1.32 2 2 C1.34 2 0.68 2 0 2 C0 1.34 0 0.68 0 0 Z " fill="#B16041" transform="translate(441,98)"/>
<path d="M0 0 C0.66 0 1.32 0 2 0 C2 0.66 2 1.32 2 2 C1.34 2 0.68 2 0 2 C0 1.34 0 0.68 0 0 Z " fill="#B16041" transform="translate(69,98)"/>
<path d="M0 0 C0.99 0.33 1.98 0.66 3 1 C2.01 1.33 1.02 1.66 0 2 C0 1.34 0 0.68 0 0 Z " fill="#B16041" transform="translate(436,95)"/>
<path d="M0 0 C0.99 0 1.98 0 3 0 C2.67 0.66 2.34 1.32 2 2 C1.34 1.34 0.68 0.68 0 0 Z " fill="#B16041" transform="translate(310,95)"/>
<path d="M0 0 C0.99 0.33 1.98 0.66 3 1 C2.01 1.33 1.02 1.66 0 2 C0 1.34 0 0.68 0 0 Z " fill="#B16041" transform="translate(199,95)"/>
<path d="M0 0 C0.99 0 1.98 0 3 0 C2.67 0.66 2.34 1.32 2 2 C1.34 1.34 0.68 0.68 0 0 Z " fill="#B16041" transform="translate(73,95)"/>
<path d="M0 0 C0.66 0 1.32 0 2 0 C2 0.66 2 1.32 2 2 C1.34 2 0.68 2 0 2 C0 1.34 0 0.68 0 0 Z " fill="#B16041" transform="translate(434,93)"/>
<path d="M0 0 C0.66 0 1.32 0 2 0 C2 0.66 2 1.32 2 2 C1.34 2 0.68 2 0 2 C0 1.34 0 0.68 0 0 Z " fill="#B16041" transform="translate(313,93)"/>
<path d="M0 0 C0.66 0 1.32 0 2 0 C2 0.66 2 1.32 2 2 C1.34 2 0.68 2 0 2 C0 1.34 0 0.68 0 0 Z " fill="#B16041" transform="translate(197,93)"/>
<path d="M0 0 C0.66 0 1.32 0 2 0 C2 0.66 2 1.32 2 2 C1.34 2 0.68 2 0 2 C0 1.34 0 0.68 0 0 Z " fill="#B16041" transform="translate(76,93)"/>
<path d="M0 0 C4 1 4 1 4 1 Z " fill="#B16041" transform="translate(419,85)"/>
<path d="M0 0 C4 1 4 1 4 1 Z " fill="#B16041" transform="translate(89,85)"/>
<path d="M0 0 C4 1 4 1 4 1 Z " fill="#B16041" transform="translate(330,83)"/>
<path d="M0 0 C0.66 0.66 1.32 1.32 2 2 C1.34 2 0.68 2 0 2 C0 1.34 0 0.68 0 0 Z " fill="#B16041" transform="translate(274,456)"/>
<path d="M0 0 C0.33 0.66 0.66 1.32 1 2 C0.34 1.67 -0.32 1.34 -1 1 C-0.67 0.67 -0.34 0.34 0 0 Z " fill="#B16041" transform="translate(237,456)"/>
<path d="M0 0 C0.66 0.66 1.32 1.32 2 2 C1.34 2 0.68 2 0 2 C0 1.34 0 0.68 0 0 Z " fill="#B16041" transform="translate(230,451)"/>
<path d="M0 0 C0.33 0.66 0.66 1.32 1 2 C0.34 1.67 -0.32 1.34 -1 1 C-0.67 0.67 -0.34 0.34 0 0 Z " fill="#B16041" transform="translate(281,451)"/>
<path d="M0 0 C0.66 0.66 1.32 1.32 2 2 C1.34 2 0.68 2 0 2 C0 1.34 0 0.68 0 0 Z " fill="#B16041" transform="translate(223,444)"/>
<path d="M0 0 C0.33 0.66 0.66 1.32 1 2 C0.34 1.67 -0.32 1.34 -1 1 C-0.67 0.67 -0.34 0.34 0 0 Z " fill="#B16041" transform="translate(288,444)"/>
<path d="M0 0 C0.66 0.66 1.32 1.32 2 2 C1.34 2 0.68 2 0 2 C0 1.34 0 0.68 0 0 Z " fill="#B16041" transform="translate(293,439)"/>
<path d="M0 0 C0.33 0.66 0.66 1.32 1 2 C0.34 1.67 -0.32 1.34 -1 1 C-0.67 0.67 -0.34 0.34 0 0 Z " fill="#B16041" transform="translate(218,439)"/>
<path d="M0 0 C0.99 0.495 0.99 0.495 2 1 C1.01 1.495 1.01 1.495 0 2 C0 1.34 0 0.68 0 0 Z " fill="#B16041" transform="translate(316,419)"/>
<path d="M0 0 C0.66 0.66 1.32 1.32 2 2 C1.34 2 0.68 2 0 2 C0 1.34 0 0.68 0 0 Z " fill="#B16041" transform="translate(356,381)"/>
<path d="M0 0 C0.33 0.66 0.66 1.32 1 2 C0.34 1.67 -0.32 1.34 -1 1 C-0.67 0.67 -0.34 0.34 0 0 Z " fill="#B16041" transform="translate(155,381)"/>
<path d="M0 0 C0.33 0.66 0.66 1.32 1 2 C0.34 1.67 -0.32 1.34 -1 1 C-0.67 0.67 -0.34 0.34 0 0 Z " fill="#B16041" transform="translate(375,364)"/>
<path d="M0 0 C0.33 0.66 0.66 1.32 1 2 C0.34 1.67 -0.32 1.34 -1 1 C-0.67 0.67 -0.34 0.34 0 0 Z " fill="#B16041" transform="translate(377,362)"/>
<path d="M0 0 C0.33 0.66 0.66 1.32 1 2 C0.34 1.67 -0.32 1.34 -1 1 C-0.67 0.67 -0.34 0.34 0 0 Z " fill="#B16041" transform="translate(380,359)"/>
<path d="M0 0 C0.33 0.66 0.66 1.32 1 2 C0.34 1.67 -0.32 1.34 -1 1 C-0.67 0.67 -0.34 0.34 0 0 Z " fill="#B16041" transform="translate(382,357)"/>
<path d="M0 0 C0.99 0.495 0.99 0.495 2 1 C1.01 1.495 1.01 1.495 0 2 C0 1.34 0 0.68 0 0 Z " fill="#B16041" transform="translate(392,346)"/>
<path d="M0 0 C0.66 0 1.32 0 2 0 C1.67 0.66 1.34 1.32 1 2 C0.67 1.34 0.34 0.68 0 0 Z " fill="#B16041" transform="translate(118,346)"/>
<path d="M0 0 C0.99 0.495 0.99 0.495 2 1 C1.01 1.495 1.01 1.495 0 2 C0 1.34 0 0.68 0 0 Z " fill="#B16041" transform="translate(95,320)"/>
<path d="" fill="#B16041" transform="translate(0,0)"/>
<path d="" fill="#B16041" transform="translate(0,0)"/>
<path d="M0 0 C0.66 0.66 1.32 1.32 2 2 C1.34 2 0.68 2 0 2 C0 1.34 0 0.68 0 0 Z " fill="#B16041" transform="translate(59,275)"/>
<path d="M0 0 C0.33 0.66 0.66 1.32 1 2 C0.34 1.67 -0.32 1.34 -1 1 C-0.67 0.67 -0.34 0.34 0 0 Z " fill="#B16041" transform="translate(452,275)"/>
<path d="" fill="#B16041" transform="translate(0,0)"/>
<path d="" fill="#B16041" transform="translate(0,0)"/>
<path d="" fill="#B16041" transform="translate(0,0)"/>
<path d="" fill="#B16041" transform="translate(0,0)"/>
<path d="" fill="#B16041" transform="translate(0,0)"/>
<path d="" fill="#B16041" transform="translate(0,0)"/>
<path d="M0 0 C0.66 0.66 1.32 1.32 2 2 C1.34 2 0.68 2 0 2 C0 1.34 0 0.68 0 0 Z " fill="#B16041" transform="translate(245,132)"/>
<path d="M0 0 C0.33 0.66 0.66 1.32 1 2 C0.34 1.67 -0.32 1.34 -1 1 C-0.67 0.67 -0.34 0.34 0 0 Z " fill="#B16041" transform="translate(266,132)"/>
<path d="" fill="#B16041" transform="translate(0,0)"/>
<path d="" fill="#B16041" transform="translate(0,0)"/>
<path d="M0 0 C0.99 0.495 0.99 0.495 2 1 C1.01 1.495 1.01 1.495 0 2 C0 1.34 0 0.68 0 0 Z " fill="#B16041" transform="translate(274,124)"/>
<path d="M0 0 C0.66 0 1.32 0 2 0 C1.67 0.66 1.34 1.32 1 2 C0.67 1.34 0.34 0.68 0 0 Z " fill="#B16041" transform="translate(236,124)"/>
<path d="M0 0 C0.66 0.66 1.32 1.32 2 2 C1.34 2 0.68 2 0 2 C0 1.34 0 0.68 0 0 Z " fill="#B16041" transform="translate(232,120)"/>
<path d="M0 0 C0.33 0.66 0.66 1.32 1 2 C0.34 1.67 -0.32 1.34 -1 1 C-0.67 0.67 -0.34 0.34 0 0 Z " fill="#B16041" transform="translate(279,120)"/>
<path d="M0 0 C0.66 0 1.32 0 2 0 C1.67 0.66 1.34 1.32 1 2 C0.67 1.34 0.34 0.68 0 0 Z " fill="#B16041" transform="translate(282,117)"/>
<path d="M0 0 C0.99 0.495 0.99 0.495 2 1 C1.01 1.495 1.01 1.495 0 2 C0 1.34 0 0.68 0 0 Z " fill="#B16041" transform="translate(228,117)"/>
<path d="M0 0 C0.99 0.495 0.99 0.495 2 1 C1.01 1.495 1.01 1.495 0 2 C0 1.34 0 0.68 0 0 Z " fill="#B16041" transform="translate(288,112)"/>
<path d="M0 0 C0.66 0 1.32 0 2 0 C1.67 0.66 1.34 1.32 1 2 C0.67 1.34 0.34 0.68 0 0 Z " fill="#B16041" transform="translate(222,112)"/>
<path d="M0 0 C0.66 0.66 1.32 1.32 2 2 C1.34 2 0.68 2 0 2 C0 1.34 0 0.68 0 0 Z " fill="#B16041" transform="translate(218,108)"/>
<path d="M0 0 C0.33 0.66 0.66 1.32 1 2 C0.34 1.67 -0.32 1.34 -1 1 C-0.67 0.67 -0.34 0.34 0 0 Z " fill="#B16041" transform="translate(293,108)"/>
<path d="M0 0 C0.66 0 1.32 0 2 0 C1.67 0.66 1.34 1.32 1 2 C0.67 1.34 0.34 0.68 0 0 Z " fill="#B16041" transform="translate(451,107)"/>
<path d="M0 0 C0.99 0.495 0.99 0.495 2 1 C1.01 1.495 1.01 1.495 0 2 C0 1.34 0 0.68 0 0 Z " fill="#B16041" transform="translate(59,107)"/>
<path d="M0 0 C0.66 0 1.32 0 2 0 C1.67 0.66 1.34 1.32 1 2 C0.67 1.34 0.34 0.68 0 0 Z " fill="#B16041" transform="translate(449,105)"/>
<path d="M0 0 C0.99 0.495 0.99 0.495 2 1 C1.01 1.495 1.01 1.495 0 2 C0 1.34 0 0.68 0 0 Z " fill="#B16041" transform="translate(61,105)"/>
<path d="M0 0 C0.66 0.66 1.32 1.32 2 2 C1.34 2 0.68 2 0 2 C0 1.34 0 0.68 0 0 Z " fill="#B16041" transform="translate(447,103)"/>
<path d="M0 0 C0.33 0.66 0.66 1.32 1 2 C0.34 1.67 -0.32 1.34 -1 1 C-0.67 0.67 -0.34 0.34 0 0 Z " fill="#B16041" transform="translate(64,103)"/>
<path d="M0 0 C0.99 0.495 0.99 0.495 2 1 C1.01 1.495 1.01 1.495 0 2 C0 1.34 0 0.68 0 0 Z " fill="#B16041" transform="translate(443,100)"/>
<path d="M0 0 C0.66 0 1.32 0 2 0 C1.67 0.66 1.34 1.32 1 2 C0.67 1.34 0.34 0.68 0 0 Z " fill="#B16041" transform="translate(67,100)"/>
<path d="M0 0 C3 1 3 1 3 1 Z " fill="#B16041" transform="translate(318,90)"/>
<path d="M0 0 C3 1 3 1 3 1 Z " fill="#B16041" transform="translate(191,90)"/>
<path d="M0 0 C3 1 3 1 3 1 Z " fill="#B16041" transform="translate(327,85)"/>
<path d="M0 0 C3 1 3 1 3 1 Z " fill="#B16041" transform="translate(182,85)"/>
<path d="M0 0 C2 1 2 1 2 1 Z " fill="#B16041" transform="translate(276,455)"/>
<path d="M0 0 C2 1 2 1 2 1 Z " fill="#B16041" transform="translate(234,455)"/>
<path d="" fill="#B16041" transform="translate(0,0)"/>
<path d="" fill="#B16041" transform="translate(0,0)"/>
<path d="M0 0 C2 1 2 1 2 1 Z " fill="#B16041" transform="translate(289,443)"/>
<path d="M0 0 C2 1 2 1 2 1 Z " fill="#B16041" transform="translate(221,443)"/>
<path d="M0 0 C2 1 2 1 2 1 Z " fill="#B16041" transform="translate(308,426)"/>
<path d="M0 0 C2 1 2 1 2 1 Z " fill="#B16041" transform="translate(202,426)"/>
<path d="M0 0 C2 1 2 1 2 1 Z " fill="#B16041" transform="translate(314,421)"/>
<path d="M0 0 C2 1 2 1 2 1 Z " fill="#B16041" transform="translate(327,409)"/>
<path d="M0 0 C2 1 2 1 2 1 Z " fill="#B16041" transform="translate(183,409)"/>
<path d="M0 0 C2 1 2 1 2 1 Z " fill="#B16041" transform="translate(340,397)"/>
<path d="M0 0 C2 1 2 1 2 1 Z " fill="#B16041" transform="translate(170,397)"/>
<path d="" fill="#B16041" transform="translate(0,0)"/>
<path d="" fill="#B16041" transform="translate(0,0)"/>
<path d="M0 0 C2 1 2 1 2 1 Z " fill="#B16041" transform="translate(165,392)"/>
<path d="" fill="#B16041" transform="translate(0,0)"/>
<path d="" fill="#B16041" transform="translate(0,0)"/>
<path d="M0 0 C2 1 2 1 2 1 Z " fill="#B16041" transform="translate(352,385)"/>
<path d="M0 0 C2 1 2 1 2 1 Z " fill="#B16041" transform="translate(158,385)"/>
<path d="" fill="#B16041" transform="translate(0,0)"/>
<path d="M0 0 C2 1 2 1 2 1 Z " fill="#B16041" transform="translate(398,339)"/>
<path d="M0 0 C2 1 2 1 2 1 Z " fill="#B16041" transform="translate(112,339)"/>
<path d="" fill="#B16041" transform="translate(0,0)"/>
<path d="" fill="#B16041" transform="translate(0,0)"/>
<path d="" fill="#B16041" transform="translate(0,0)"/>
<path d="" fill="#B16041" transform="translate(0,0)"/>
<path d="" fill="#B16041" transform="translate(0,0)"/>
<path d="" fill="#B16041" transform="translate(0,0)"/>
<path d="" fill="#B16041" transform="translate(0,0)"/>
<path d="" fill="#B16041" transform="translate(0,0)"/>
<path d="M0 0 C2 1 2 1 2 1 Z " fill="#B16041" transform="translate(262,136)"/>
<path d="" fill="#B16041" transform="translate(0,0)"/>
<path d="" fill="#B16041" transform="translate(0,0)"/>
<path d="M0 0 C2 1 2 1 2 1 Z " fill="#B16041" transform="translate(267,131)"/>
<path d="M0 0 C2 1 2 1 2 1 Z " fill="#B16041" transform="translate(243,131)"/>
<path d="" fill="#B16041" transform="translate(0,0)"/>
<path d="" fill="#B16041" transform="translate(0,0)"/>
<path d="M0 0 C2 1 2 1 2 1 Z " fill="#B16041" transform="translate(272,126)"/>
<path d="M0 0 C2 1 2 1 2 1 Z " fill="#B16041" transform="translate(238,126)"/>
<path d="" fill="#B16041" transform="translate(0,0)"/>
<path d="" fill="#B16041" transform="translate(0,0)"/>
<path d="M0 0 C2 1 2 1 2 1 Z " fill="#B16041" transform="translate(280,119)"/>
<path d="M0 0 C2 1 2 1 2 1 Z " fill="#B16041" transform="translate(230,119)"/>
<path d="M0 0 C2 1 2 1 2 1 Z " fill="#B16041" transform="translate(286,114)"/>
<path d="M0 0 C2 1 2 1 2 1 Z " fill="#B16041" transform="translate(224,114)"/>
<path d="M0 0 C2 1 2 1 2 1 Z " fill="#B16041" transform="translate(294,107)"/>
<path d="M0 0 C2 1 2 1 2 1 Z " fill="#B16041" transform="translate(216,107)"/>
<path d="M0 0 C2 1 2 1 2 1 Z " fill="#B16041" transform="translate(445,102)"/>
<path d="M0 0 C2 1 2 1 2 1 Z " fill="#B16041" transform="translate(301,102)"/>
<path d="M0 0 C2 1 2 1 2 1 Z " fill="#B16041" transform="translate(209,102)"/>
<path d="M0 0 C2 1 2 1 2 1 Z " fill="#B16041" transform="translate(65,102)"/>
<path d="M0 0 C2 1 2 1 2 1 Z " fill="#B16041" transform="translate(439,97)"/>
<path d="M0 0 C2 1 2 1 2 1 Z " fill="#B16041" transform="translate(308,97)"/>
<path d="M0 0 C2 1 2 1 2 1 Z " fill="#B16041" transform="translate(202,97)"/>
<path d="M0 0 C2 1 2 1 2 1 Z " fill="#B16041" transform="translate(71,97)"/>
<path d="M0 0 C2 1 2 1 2 1 Z " fill="#B16041" transform="translate(429,90)"/>
<path d="M0 0 C2 1 2 1 2 1 Z " fill="#B16041" transform="translate(81,90)"/>
<path d="" fill="#B16041" transform="translate(0,0)"/>
<path d="" fill="#B16041" transform="translate(0,0)"/>
<path d="" fill="#B16041" transform="translate(0,0)"/>
<path d="" fill="#B16041" transform="translate(0,0)"/>
<path d="" fill="#B16041" transform="translate(0,0)"/>
</svg>
