<?xml version="1.0" encoding="UTF-8"?>
<svg version="1.1" xmlns="http://www.w3.org/2000/svg" width="928" height="928">
<path d="M0 0 C0.86789154 0.00093658 1.73578308 0.00187317 2.62997437 0.00283813 C67.92718387 0.15414609 129.25042084 13.67483922 188.8125 40.1875 C190.20057861 40.79972412 190.20057861 40.79972412 191.61669922 41.42431641 C205.17857395 47.44920472 217.98816219 54.74350113 230.8125 62.1875 C232.41794127 63.11202689 234.0234083 64.03650904 235.62890625 64.9609375 C264.4377523 81.63492855 290.74942929 102.1276323 315.12890625 124.7265625 C317.42221352 126.82959537 319.75277116 128.86247572 322.125 130.875 C325.44394667 133.74822036 328.2712184 136.88438989 331.10546875 140.23046875 C332.72510807 142.08730925 334.41373291 143.79147492 336.1875 145.5 C339.89738557 149.15217624 343.11740824 153.13592462 346.375 157.19140625 C348.44034754 159.7300626 350.55617986 162.21106915 352.70385742 164.67993164 C406.50508486 226.85346149 438.04628508 307.41551935 449.51824951 388.12646484 C449.79047661 390.03324034 450.07277532 391.93857061 450.35595703 393.84375 C455.84125773 432.19183039 455.37928405 473.860043 449.8125 512.1875 C449.71304077 512.88651428 449.61358154 513.58552856 449.5111084 514.3057251 C441.30608846 571.81200645 422.99801813 625.8875206 393.8125 676.1875 C392.03980899 673.52846349 390.64135497 670.86601499 389.25024414 667.99682617 C382.76561455 654.64611819 375.67138466 642.36432584 365.8125 631.1875 C365.07 630.33542969 364.3275 629.48335937 363.5625 628.60546875 C361.34560544 626.09991605 359.09274085 623.63546434 356.8125 621.1875 C356.12800781 620.44886719 355.44351563 619.71023438 354.73828125 618.94921875 C335.71242831 599.14967124 308.69589269 581.55546907 282.36328125 573.44921875 C281.45030273 573.16256348 280.53732422 572.8759082 279.59667969 572.58056641 C277.81997717 572.0383757 276.03256563 571.52980766 274.23535156 571.06005859 C271.79546128 570.3195339 269.89158859 569.66838757 267.8125 568.1875 C266.80861511 565.89779857 266.45154014 563.8762558 266.13549805 561.40063477 C265.69597952 558.38911894 264.37916003 556.37162869 262.6875 553.875 C260.35141645 550.40440697 259.8125 549.54701213 259.8125 545.1875 C261.578125 543.28515625 261.578125 543.28515625 264.0625 541.25 C280.57520556 526.95611627 294.88391874 508.28974922 300.5625 486.875 C301.4453125 484.25 301.4453125 484.25 302.8125 482.1875 C305.75222844 480.89294069 308.48849464 480.3663873 311.65234375 479.83203125 C320.62881508 478.00123055 328.31275962 471.26000786 333.8125 464.1875 C343.18541203 449.84596314 346.50109251 434.16614582 343.8125 417.1875 C340.98955324 404.23686796 335.02080777 392.34958119 323.74609375 384.8046875 C322.13419864 383.87337033 320.47756637 383.02003319 318.8125 382.1875 C319.28793584 374.40199812 319.77428639 366.61887828 320.34765625 358.83984375 C320.52658682 356.26844637 320.70222088 353.69681803 320.875 351.125 C320.92284637 350.43369995 320.97069275 349.7423999 321.01998901 349.03015137 C321.67690525 339.24392845 321.83847468 329.54487002 321.625 319.73828125 C321.59701576 318.14795326 321.59701576 318.14795326 321.56846619 316.52549744 C321.47478057 311.24742313 321.33671769 305.97747909 321.12329102 300.70288086 C321.08147857 298.75508784 321.04159361 296.8072522 321.00390625 294.859375 C320.95109497 293.97014847 320.89828369 293.08092194 320.84387207 292.16474915 C320.82173858 289.55253873 320.90967545 287.64328263 321.8125 285.1875 C324.53801655 282.62005725 327.55487648 280.98801758 330.8125 279.1875 C332.99401814 277.41698619 334.97346155 275.50719672 336.9375 273.5 C337.70042358 272.72354126 337.70042358 272.72354126 338.47875977 271.93139648 C353.5268732 256.19306858 357.48176908 237.25724136 357.12109375 216.22265625 C356.31734581 194.85496713 345.58530754 175.95953732 330.3046875 161.33984375 C314.84568445 147.98888657 294.57713338 138.42848221 273.8125 138.1875 C273.05324219 138.34476563 272.29398438 138.50203125 271.51171875 138.6640625 C268.45953975 139.16058923 266.77092946 139.186395 263.8125 138.1875 C260.80129198 135.56953198 258.39865353 132.41997529 255.91333008 129.31396484 C239.78761791 109.25612668 215.0061805 98.5637683 189.875 95.5 C188.18918789 95.37137473 186.50122457 95.26945281 184.8125 95.1875 C183.7296875 95.13464844 182.646875 95.08179687 181.53125 95.02734375 C155.67250663 94.39192591 131.9548365 101.8632901 112.4921875 119.26171875 C109.10857885 122.53597123 106.48052869 125.68914072 104 129.6875 C102.22680883 132.13098596 101.48936818 133.06236471 98.48828125 133.6171875 C96.63368963 133.57928344 94.77972053 133.48693077 92.9296875 133.3515625 C76.17634433 132.4698076 56.47542299 139.11108276 43.91918945 150.24902344 C41.49440112 152.50781441 39.15578999 154.84421001 36.8125 157.1875 C36.14605469 157.77144531 35.47960937 158.35539063 34.79296875 158.95703125 C23.02468051 169.45020022 15.76709761 188.68817168 14.59130859 204.08374023 C13.70331807 228.1331688 17.01201841 248.84828271 33.8125 267.1875 C34.33440918 267.63432129 34.85631836 268.08114258 35.39404297 268.54150391 C38.4538877 271.23693181 39.71285666 272.41348473 40.25 276.5859375 C40.13484749 277.91447532 39.98600272 279.24031633 39.8125 280.5625 C39.66545618 282.20431912 39.51972404 283.84625602 39.375 285.48828125 C39.28347656 286.4004541 39.19195312 287.31262695 39.09765625 288.25244141 C38.56410384 293.74419406 38.18302118 299.24516509 37.8125 304.75 C37.72202393 306.04236572 37.63154785 307.33473145 37.53833008 308.66625977 C36.91347404 318.29280546 36.71769818 327.90115729 36.63671875 337.546875 C36.62399933 338.81244736 36.61127991 340.07801971 36.59817505 341.38194275 C36.53590096 347.77988616 36.50044767 354.17621994 36.50585938 360.57446289 C36.48795116 362.97282647 36.46910987 365.3711833 36.44921875 367.76953125 C36.45950607 368.85808411 36.4697934 369.94663696 36.48039246 371.06817627 C36.3813514 378.81750921 34.42583619 384.37992903 30.8125 391.1875 C29.90275291 393.20210789 29.00349939 395.22157117 28.125 397.25 C27.53138672 398.59771484 27.53138672 398.59771484 26.92578125 399.97265625 C23.99876232 408.42506531 23.47282108 416.66955767 23.5 425.5625 C23.48388672 426.60921875 23.46777344 427.6559375 23.45117188 428.734375 C23.44254332 442.71263077 27.27889144 455.66765607 36.8125 466.1875 C37.30878906 466.5690625 37.80507813 466.950625 38.31640625 467.34375 C40.56156839 470.11063388 40.89640131 473.27316469 41.5625 476.6875 C48.85818746 510.26869363 68.14932616 537.35319761 96.5625 556.5625 C97.48313232 557.18801758 97.48313232 557.18801758 98.42236328 557.82617188 C102.40905507 560.46033201 106.37096726 562.42227545 110.8125 564.1875 C110.34651169 565.45057359 109.83736409 566.69773483 109.3125 567.9375 C109.0340625 568.63359375 108.755625 569.3296875 108.46875 570.046875 C103.78287055 576.10315315 94.64616475 577.60879941 87.625 579.5625 C86.57707275 579.86212646 85.52914551 580.16175293 84.44946289 580.47045898 C79.34093881 581.92811173 74.22341795 583.35172949 69.1015625 584.76171875 C47.43120652 590.75913619 29.27960803 598.94619168 11.8125 613.1875 C11.06613281 613.79078125 10.31976563 614.3940625 9.55078125 615.015625 C6.56518388 617.49423414 3.94393926 619.92765172 1.8125 623.1875 C-1.59080702 621.73542234 -3.57325125 619.89952198 -6.0625 617.1875 C-23.66282014 599.27083423 -46.44244423 591.11720716 -70.0793457 584.51171875 C-76.60394506 582.67673118 -83.06334303 580.68540948 -89.5 578.5625 C-90.77955566 578.14689819 -90.77955566 578.14689819 -92.08496094 577.72290039 C-107.39130629 572.60512532 -107.39130629 572.60512532 -110.1875 567.1875 C-110.1875 566.1975 -110.1875 565.2075 -110.1875 564.1875 C-109.18332031 563.65382813 -108.17914063 563.12015625 -107.14453125 562.5703125 C-74.46342599 544.91061115 -50.35642784 517.1688518 -39.43359375 481.53515625 C-29.7691482 448.46497048 -32.63066607 412.38810632 -35.99389648 378.53710938 C-36.39913839 373.61901596 -36.75725595 368.89676786 -35.1875 364.1875 C-34.02827614 347.92675077 -35.34683579 331.40815754 -36.5625 315.1875 C-36.62562378 314.34161316 -36.68874756 313.49572632 -36.75378418 312.62420654 C-36.94303876 310.1240699 -37.1379727 307.62446132 -37.3359375 305.125 C-37.3992778 304.31544357 -37.4626181 303.50588715 -37.52787781 302.67179871 C-37.88289945 298.31597806 -38.31870824 293.98210735 -38.85180664 289.64428711 C-38.95872833 288.7356189 -39.06565002 287.82695068 -39.17581177 286.89074707 C-39.38430562 285.14881524 -39.60827664 283.40864347 -39.85006714 281.67102051 C-40.53933835 275.82784812 -40.53933835 275.82784812 -38.71582031 272.5090332 C-36.875 270.75 -36.875 270.75 -34.61328125 269.078125 C-22.74424665 259.82754087 -15.1149467 240.50824887 -13.1875 226.1875 C-11.23595618 202.59308396 -15.50150875 179.70568411 -31.1875 161.1875 C-45.14586288 145.30986223 -63.19643993 136.35612657 -84.1875 134.1875 C-86.62509582 134.22312249 -89.06261651 134.26449901 -91.5 134.3125 C-95.77392084 134.09394723 -98.20452349 133.53119023 -101.1875 130.51953125 C-103.6118501 127.72974297 -105.79928841 124.7703102 -107.97753906 121.78662109 C-120.0048337 105.89098351 -142.21978764 98.81292629 -161.06958008 96.01171875 C-187.18069763 92.56491462 -214.33543587 97.86951231 -236.03515625 113.19921875 C-238.48731771 115.1283535 -240.84472048 117.12746973 -243.1875 119.1875 C-243.95578125 119.82429688 -244.7240625 120.46109375 -245.515625 121.1171875 C-249.59812453 124.57481465 -252.69818852 127.88301739 -255.6796875 132.33203125 C-258.88541493 136.38403499 -260.96187441 137.90014518 -266.09375 138.64453125 C-268.28915362 138.80289912 -270.48785024 138.91988506 -272.6875 139 C-275.02040522 139.18044211 -277.35249032 139.37182585 -279.68359375 139.57421875 C-280.80491699 139.66751465 -281.92624023 139.76081055 -283.08154297 139.85693359 C-305.47836832 142.24062339 -325.87242191 156.74362576 -339.92822266 173.59179688 C-350.55643569 187.05942006 -356.05085474 202.246073 -357.1875 219.1875 C-357.26871094 220.21230469 -357.26871094 220.21230469 -357.3515625 221.2578125 C-357.8535899 233.26083133 -354.51084029 245.54081941 -349.1875 256.1875 C-348.76855469 257.02539062 -348.34960938 257.86328125 -347.91796875 258.7265625 C-341.96707991 269.53076991 -331.35676659 281.60286671 -320.1875 287.1875 C-320.19416183 287.87843246 -320.20082367 288.56936493 -320.20768738 289.28123474 C-320.2819102 297.35367899 -320.3311853 305.42610643 -320.36539841 313.49880219 C-320.37495501 315.61503676 -320.38676066 317.7312509 -320.39871216 319.84747314 C-320.56973179 339.62518223 -320.56973179 339.62518223 -319.203125 359.33984375 C-319.11609818 360.11937912 -319.02907135 360.89891449 -318.93940735 361.70207214 C-318.53352445 365.13461149 -318.04632869 368.52270829 -317.46362305 371.93139648 C-316.99399737 375.22521261 -316.64116364 377.90588356 -317.1875 381.1875 C-319.74600739 384.31849684 -322.73503368 386.1487197 -326.1875 388.1875 C-334.94049485 396.27147613 -340.4216146 406.90980432 -341.40869141 418.86694336 C-341.88192607 430.80554625 -342.10469887 442.10762754 -337.1875 453.1875 C-336.836875 454.06019531 -336.48625 454.93289063 -336.125 455.83203125 C-331.5170268 466.24797067 -323.58878364 474.50767717 -313.1875 479.1875 C-311.06788581 479.79010972 -308.94264838 480.37325657 -306.8125 480.9375 C-301.63249368 482.57849437 -301.63249368 482.57849437 -299.8203125 485.05859375 C-298.9375 487.375 -298.9375 487.375 -298.15625 490.01953125 C-291.25013901 512.60362809 -275.58320822 529.01986191 -259.1875 545.1875 C-259.65800781 545.92613281 -260.12851562 546.66476562 -260.61328125 547.42578125 C-261.23589844 548.44027344 -261.85851562 549.45476563 -262.5 550.5 C-263.11488281 551.48613281 -263.72976563 552.47226562 -264.36328125 553.48828125 C-266.10678307 556.53279858 -266.5845809 559.34647924 -267.19140625 562.78515625 C-268.08042045 566.23857794 -268.57827426 567.74464397 -271.49047852 569.86157227 C-274.5559857 571.22364206 -277.61573078 572.29645261 -280.8125 573.3125 C-283.09119103 574.1267379 -285.36724191 574.94840134 -287.640625 575.77734375 C-288.75759766 576.17679199 -289.87457031 576.57624023 -291.02539062 576.98779297 C-302.05075929 581.17082738 -312.47649928 587.56133284 -322.1875 594.1875 C-322.7350293 594.55987793 -323.28255859 594.93225586 -323.84667969 595.31591797 C-330.9535877 600.1786424 -337.64889155 605.22315002 -343.95703125 611.109375 C-346.00532622 613.01776891 -348.10785597 614.82374726 -350.25 616.625 C-368.82154802 632.8890611 -380.58540665 654.30658395 -391.1875 676.1875 C-395.72514419 670.76822114 -398.8775251 664.77445878 -402.1875 658.5625 C-402.68171448 657.63712433 -402.68171448 657.63712433 -403.18591309 656.6930542 C-426.990001 611.95669677 -441.92913016 564.23728759 -449.1875 514.1875 C-449.36394043 513.02621582 -449.54038086 511.86493164 -449.72216797 510.66845703 C-455.23861064 472.78596817 -454.79702216 431.0233378 -449.1875 393.1875 C-448.89342707 391.00014817 -448.60047376 388.81264554 -448.30859375 386.625 C-439.94156319 326.35735039 -419.37257435 268.60809638 -387.70703125 216.6796875 C-386.31506555 214.39672061 -384.93755672 212.10567151 -383.5625 209.8125 C-378.0976099 200.79023493 -372.01540019 192.3648497 -365.58203125 184.01123047 C-363.56036351 181.36734776 -361.59758899 178.68060753 -359.625 176 C-351.62095451 165.34713371 -342.74938545 155.50192689 -333.66064453 145.77392578 C-332.21976332 144.22224429 -330.79287338 142.65903031 -329.37109375 141.08984375 C-320.78140534 131.6109379 -311.96944958 122.45246274 -302.1875 114.1875 C-301.26839844 113.39085938 -300.34929687 112.59421875 -299.40234375 111.7734375 C-290.6198902 104.19384975 -281.48070497 97.12724426 -272.1875 90.1875 C-271.11024658 89.37877441 -271.11024658 89.37877441 -270.01123047 88.55371094 C-192.50858353 30.58793542 -96.53724182 -0.13636685 0 0 Z " fill="#B06241" transform="translate(463.1875,11.8125)"/>
<path d="M0 0 C1.33821345 1.22243241 2.64958349 2.47468541 3.9375 3.75 C26.71955053 24.00989975 58.17677206 30.3163541 87.9375 28.75 C104.60015257 27.44201021 128.78060646 24.18859677 140.578125 10.90234375 C141.02671875 10.33644531 141.4753125 9.77054688 141.9375 9.1875 C144.9375 6.75 144.9375 6.75 147.2578125 6.80444336 C156.23189996 8.51755041 165.09130351 10.59954252 173.9375 12.875 C174.70863129 13.07319336 175.47976257 13.27138672 176.27426147 13.47558594 C203.89982211 20.63422877 228.74629019 31.34874742 246.515625 54.8359375 C249.10701874 58.17747153 250.3728141 59.56177137 254.5 60.9375 C258.85752461 60.69981684 259.90304443 59.86031696 262.9375 56.75 C264.64788989 54.83229012 266.3326178 52.89438709 268.01171875 50.94921875 C291.70079095 23.89658661 330.86953121 10.62321535 365.9375 6.75 C368.5078125 8.41015625 368.5078125 8.41015625 371.0625 10.8125 C391.23429048 28.36740955 420.38889405 30.15309918 445.9375 28.75 C469.04994512 26.93273808 493.8268908 20.79547726 510.75 3.9453125 C511.3275 3.38585937 511.905 2.82640625 512.5 2.25 C512.97566406 1.7446875 513.45132813 1.239375 513.94140625 0.71875 C517.92737985 -1.21573425 522.23833282 0.1798386 526.24682617 1.52490234 C528.77892829 2.51752969 531.26442648 3.58355064 533.75 4.6875 C534.65999756 5.08573975 535.56999512 5.48397949 536.50756836 5.89428711 C567.06261655 19.48047966 597.02316118 38.76071141 614.9375 67.75 C615.96617187 69.38001953 615.96617187 69.38001953 617.015625 71.04296875 C624.18719955 82.93628609 633.29527367 99.90371638 632.8671875 114.078125 C631.42738272 118.21605136 628.7723656 121.28481465 626.0625 124.6875 C625.47823242 125.43459229 624.89396484 126.18168457 624.29199219 126.95141602 C623.09129528 128.48486167 621.88685591 130.01538426 620.67871094 131.54296875 C619.08724061 133.56019979 617.51257224 135.58893806 615.9453125 137.625 C610.55197367 144.60921366 604.91255605 151.25041613 598.9375 157.75 C597.76615335 159.0792238 596.59925407 160.41238407 595.4375 161.75 C588.22142833 170.01974585 580.82784434 178.05389706 573.0625 185.8125 C572.18408447 186.69083496 571.30566895 187.56916992 570.40063477 188.47412109 C565.25004871 193.57943879 560.07835486 198.39338867 554.34375 202.8359375 C551.71256127 204.92892854 549.31367924 207.18619289 546.875 209.5 C540.10388511 215.7294257 532.61973595 220.9251642 525.10644531 226.21435547 C523.16972366 227.5855823 521.2490981 228.9750936 519.3359375 230.37890625 C475.48359233 262.47189215 425.22480866 285.43140073 372.9375 299.75 C372.0084082 300.01022949 371.07931641 300.27045898 370.12207031 300.53857422 C333.90737498 310.6038852 296.09314483 314.97015194 258.5625 315 C257.77913269 315.00067474 256.99576538 315.00134949 256.18865967 315.00204468 C161.34438749 314.87476727 67.75627396 283.43704656 -40.0625 204.75 C-40.98675781 203.925 -41.91101563 203.1 -42.86328125 202.25 C-44.44198605 200.83180085 -46.0170808 199.40955458 -47.5859375 197.98046875 C-48.98876655 196.71703754 -50.39834561 195.46075964 -51.82885742 194.22875977 C-56.97622768 189.7920693 -61.83372071 185.12979529 -66.625 180.3125 C-67.34107422 179.60029297 -68.05714844 178.88808594 -68.79492188 178.15429688 C-73.42396396 173.51683069 -77.80183776 168.72623253 -82.0625 163.75 C-83.03590378 162.63232928 -84.00983725 161.51511961 -84.984375 160.3984375 C-119.18968422 120.90967222 -119.18968422 120.90967222 -118.99609375 114.578125 C-114.29453496 90.14482734 -102.28831731 66.69220291 -85.0625 48.75 C-83.97426687 47.4415597 -82.89074785 46.12918103 -81.8125 44.8125 C-64.90678307 25.54694616 -40.38105782 12.34765707 -17.05712891 2.60595703 C-15.26937719 1.83877741 -13.51279287 0.99990507 -11.76171875 0.15234375 C-7.0781161 -1.96596616 -4.37157036 -3.16830644 0 0 Z M137.9375 58.75 C124.24371838 75.76348626 120.4025154 93.29638014 121.9375 114.75 C124.94285418 138.11959103 142.80609507 158.87842996 157.9375 175.75 C158.76507813 176.67683594 159.59265625 177.60367188 160.4453125 178.55859375 C161.9242211 180.20544621 163.40817197 181.84779249 164.8984375 183.484375 C167.50813337 186.38403708 170.02538387 189.35867432 172.52734375 192.3515625 C173.84318483 193.98471676 173.84318483 193.98471676 175.9375 193.75 C176.32035156 194.62205078 176.32035156 194.62205078 176.7109375 195.51171875 C180.13254906 201.755615 186.66555411 206.44604652 192.00390625 211.03515625 C193.89244597 212.71004299 195.66905648 214.44947587 197.4375 216.25 C200.42622337 219.28594925 203.55456479 222.09508659 206.78125 224.875 C209.13712958 226.92359094 211.4425746 229.02203002 213.75 231.125 C218.47932811 235.38785417 223.353625 239.43552299 228.30957031 243.43115234 C230.148369 244.92083298 231.97676671 246.42277449 233.8046875 247.92578125 C241.35218207 254.11839011 248.94029831 260.14179288 256.9375 265.75 C267.81411473 257.7013051 278.37367857 249.36208121 288.5456543 240.44042969 C292.07131027 237.35107421 295.64070761 234.35382527 299.3125 231.4375 C312.37020396 220.79718438 324.14947977 208.6321263 336.0625 196.75 C336.94264771 195.87387054 336.94264771 195.87387054 337.84057617 194.9800415 C344.09481111 188.74748313 350.2387989 182.50242319 355.9375 175.75 C356.80632812 174.76257813 357.67515625 173.77515625 358.5703125 172.7578125 C378.78191679 149.37824516 394.1692805 126.1173663 392.16503906 94.14404297 C390.65796511 78.28742578 384.26844606 64.92546138 372.9375 53.75 C371.98037109 52.77740234 371.98037109 52.77740234 371.00390625 51.78515625 C358.59124616 39.99183886 343.13389751 37.22396583 326.64697266 37.33251953 C305.16925753 37.886446 286.98443965 46.5671646 271.9375 61.75 C266.15695387 67.8725791 261.14831185 74.45125945 256.9375 81.75 C254.39951474 78.61518259 251.9478766 75.43063739 249.5390625 72.19580078 C237.07185116 55.59435893 221.67696114 42.42751277 200.7734375 38.2265625 C176.11130658 35.16263177 155.41309404 40.14512686 137.9375 58.75 Z M55.125 64.25 C50.93539896 69.03811548 50.49873318 71.84014985 50.62109375 78.0234375 C51.21245388 83.11935568 53.82367266 85.74483874 57.5 89.0625 C61.71791983 91.98259834 65.92697463 92.41807005 70.9375 91.75 C75.84290446 89.29729777 80.25406489 85.59304898 82.9375 80.75 C83.97752035 75.77838757 83.54431413 71.98696726 81.3125 67.4375 C77.01765488 62.57754368 73.58727817 59.04764782 66.953125 58.6171875 C62.04550991 58.94055749 58.71463364 61.05921454 55.125 64.25 Z M436.203125 63.44140625 C431.92490437 68.32061501 430.40954061 71.51101214 430.45703125 78.07421875 C431.49208938 83.83856687 436.04689673 87.19873577 440.375 90.75 C444.63854395 92.41382203 448.6037552 92.62869743 452.8671875 91.0234375 C457.49392399 88.58099721 460.60995394 85.40509212 462.9375 80.75 C463.56143015 75.37528738 463.89772144 70.35810631 460.75 65.75 C456.87409132 61.22449769 453.02598685 59.21770751 446.984375 58.6953125 C442.59990482 58.81245483 439.31902665 60.40270036 436.203125 63.44140625 Z M55.9375 152.75 C52.97472828 157.10157096 52.28450129 160.52601029 52.9375 165.75 C55.65051621 170.96733886 59.63673844 175.09961922 64.9375 177.75 C69.58798294 178.31735892 73.03480577 178.2098631 77.25 176.0625 C80.79699853 173.0104315 84.45909979 169.66884684 85.24609375 164.8671875 C85.58106862 159.04065498 84.36827778 155.84222841 80.56640625 151.4140625 C76.9583947 147.72818019 74.23348875 146.55406332 69.125 146.1875 C63.35665118 146.36829899 59.86092249 148.63840377 55.9375 152.75 Z M431.0625 153.9375 C428.3234357 158.06825716 427.98818363 161.93309839 428.9375 166.75 C431.46990382 171.7210149 434.92611134 175.24430567 439.9375 177.75 C444.5319229 178.31051959 448.00990876 178.21379562 452.1875 176.125 C456.57357783 172.33702369 460.66249733 168.55502721 461.25 162.5625 C460.81845989 157.29771067 459.0175161 153.94036178 455.46484375 150.19921875 C451.3329506 146.73155429 447.63299148 146.02870655 442.296875 146.3359375 C437.25791841 147.2202577 434.22834666 150.14553882 431.0625 153.9375 Z " fill="#B06241" transform="translate(207.0625,601.25)"/>
<path d="M0 0 C1.23492188 0.32742188 2.46984375 0.65484375 3.7421875 0.9921875 C8.00312678 3.61823401 8.41660052 5.76048002 9.59643555 10.47900391 C9.81211182 11.47593262 10.02778809 12.47286133 10.25 13.5 C10.49468018 14.5214209 10.73936035 15.5428418 10.99145508 16.59521484 C12.7091066 23.98771173 14.05036845 31.43723738 14.97558594 38.97070312 C15.54266838 43.31769003 16.43266678 46.42129309 19 50 C22.11753313 49.32072099 24.8385257 48.23097346 27.75 46.9375 C33.17212774 44.76705884 37.35361688 43.79132925 43.09765625 45.6953125 C49.36381719 48.48287568 53.22911557 52.65776492 55.75 59.0625 C59.22189812 68.93318709 59.16540514 79.36361497 55 89 C49.95559597 98.21908322 44.01809329 102.90555369 34 106 C31.11334824 106.43394111 28.25835197 106.79756453 25.34765625 107.01953125 C22.65736801 107.85140769 22.65736801 107.85140769 21.3515625 111.109375 C20.88221169 112.39955468 20.43202453 113.69684667 20 115 C19.56300781 116.19496094 19.12601563 117.38992188 18.67578125 118.62109375 C18.45615723 119.23831299 18.2365332 119.85553223 18.01025391 120.49145508 C6.81995464 151.70134852 -13.484894 175.86322842 -43.6003418 190.36499023 C-72.71995423 203.66019348 -107.82405522 205.50411129 -137.94824219 194.4675293 C-149.5070944 189.98732252 -159.33003564 183.71022306 -169 176 C-169.96679688 175.28263672 -169.96679688 175.28263672 -170.953125 174.55078125 C-189.37103378 160.2209597 -198.79957902 135.11830069 -203 113 C-203.11214844 112.06027344 -203.22429688 111.12054688 -203.33984375 110.15234375 C-203.82372372 105.27971126 -203.82372372 105.27971126 -206.7265625 101.625 C-208.13222186 100.86689158 -209.54525534 100.12231848 -210.96484375 99.390625 C-215.82938171 96.06667968 -217.74852653 89.47930015 -219.3125 84 C-221.88568912 70.07013969 -221.11312454 53.93106549 -213 42 C-211.700625 40.7315625 -211.700625 40.7315625 -210.375 39.4375 C-202.27350845 29.77038278 -205.32884756 7.85187978 -205 -4 C-139.08915432 -20.53570236 -64.83825706 -22.78895656 0 0 Z M-170.1875 33.0625 C-175.37881326 39.41198027 -176.77292255 48.01313365 -176 56 C-174.64469394 62.49417488 -172.01159223 67.57656529 -167 72 C-163.16821513 74.23583518 -160.45681517 74.59424202 -156 74 C-149.51908288 70.64865122 -144.72976636 65.13350017 -142.39453125 58.203125 C-140.82456676 49.43619459 -141.00997611 40.74678801 -145.5625 32.9609375 C-147.91472122 29.75220095 -150.47667031 27.76166484 -154 26 C-161.3748257 25.29088214 -165.19610375 27.94816295 -170.1875 33.0625 Z M-58.66796875 36.98828125 C-63.36166545 44.07700208 -62.64969755 52.87466868 -62 61 C-60.41011353 67.35954587 -56.22505632 71.28068651 -51 75 C-47.71143625 76.64428187 -44.5407425 76.62849735 -41 76 C-35.15363865 73.28600106 -31.43312468 68.7943424 -28.8515625 62.97265625 C-26.60918691 55.14491395 -26.70325238 46.81841203 -30.125 39.375 C-32.86420069 34.68480167 -36.0982896 31.4508552 -41 29 C-49.48584669 28.44355104 -53.11368351 30.70124071 -58.66796875 36.98828125 Z M-134.640625 82.32421875 C-138.25056148 86.77439907 -140.4015314 91.65082449 -140.125 97.4375 C-138.49966352 106.65846834 -132.36523474 113.64346564 -125 119 C-120.18550037 122.17552103 -115.65389015 122.96834583 -110 122 C-107.12970131 120.20606332 -105.50868362 119.01736724 -104 116 C-103.33169229 112.6700329 -103.33169229 112.6700329 -104 109 C-106.72006711 105.68994651 -110.13187838 103.50158138 -113.8125 101.375 C-116.39529369 99.75152968 -116.96176837 98.83914526 -118 96 C-117.8359375 93.37890625 -117.8359375 93.37890625 -117.375 90.5625 C-116.82232642 86.01186655 -116.82232642 86.01186655 -118.8125 81.875 C-121.57109411 79.51049076 -122.59375245 79.04687472 -126.25 78.625 C-130.04048675 79.00404867 -131.88163527 79.69131188 -134.640625 82.32421875 Z M-74 132 C-83.38793026 141.06340922 -93.5804626 144.40852292 -106.50341797 144.36791992 C-114.57278538 144.18353217 -121.30038482 142.17186577 -127.8125 137.3125 C-131.20703367 134.84979911 -132.81055679 133.7381598 -137 134 C-140.6749746 136.15952116 -143.35297665 138.63784557 -145.1875 142.5 C-144.91523286 146.13022858 -143.26431091 148.30125735 -141 151 C-140.5359375 151.56976562 -140.071875 152.13953125 -139.59375 152.7265625 C-131.66508794 161.54914234 -120.56637365 165.53996604 -109.00390625 166.28515625 C-92.51127196 167.00676524 -78.00710998 162.86474583 -65.43359375 151.7265625 C-58.64154593 145.19441788 -58.64154593 145.19441788 -55.4375 136.5625 C-56.09150963 132.42043902 -57.12563931 130.82314193 -60.21875 128.109375 C-66.20182409 124.38307447 -69.98190093 127.37918607 -74 132 Z " fill="#B06241" transform="translate(728,367)"/>
<path d="M0 0 C0.66902344 0.67675781 1.33804688 1.35351562 2.02734375 2.05078125 C17.34988935 16.20830685 39.31785703 18.63282895 59.30859375 18.53125 C62.94326499 18.36427258 66.3774717 17.94114402 69.96484375 17.36328125 C69.96484375 16.37328125 69.96484375 15.38328125 69.96484375 14.36328125 C68.92585937 13.84378906 67.886875 13.32429688 66.81640625 12.7890625 C59.19921875 8.98046875 51.58203125 5.171875 43.96484375 1.36328125 C43.96484375 1.03328125 43.96484375 0.70328125 43.96484375 0.36328125 C52.56593076 0.86979164 60.89057963 1.87336344 69.33984375 3.55078125 C70.44312012 3.76565186 71.54639648 3.98052246 72.68310547 4.2019043 C83.90083749 6.44657103 94.94455484 9.30490558 105.96484375 12.36328125 C109.02521897 34.29801463 111.17986685 56.22488047 111.96484375 78.36328125 C112.00738281 79.46027344 112.04992187 80.55726563 112.09375 81.6875 C112.80500322 117.96141397 104.05781881 152.79226317 79.4921875 180.11328125 C60.28824967 200.0780724 32.63849186 212.76589664 4.859375 213.6015625 C-9.59876173 213.82764672 -23.06822085 213.23299036 -37.03515625 209.36328125 C-37.71852051 209.17604492 -38.40188477 208.98880859 -39.10595703 208.79589844 C-67.04140153 200.88074191 -90.82407943 182.91533654 -104.9855957 157.58886719 C-109.55675426 149.10092219 -112.99456499 140.53629744 -115.78125 131.31640625 C-116.19808317 129.99833826 -116.61602534 128.68062039 -117.03515625 127.36328125 C-117.22537354 126.6988501 -117.41559082 126.03441895 -117.61157227 125.34985352 C-118.27588403 123.17316956 -118.27588403 123.17316956 -120.03515625 120.36328125 C-123.30012168 119.08530963 -123.30012168 119.08530963 -127.09765625 118.80078125 C-135.11401589 117.59027333 -141.5266169 115.55113353 -146.87109375 109.171875 C-153.72728156 98.75381401 -155.12288902 87.50621675 -153.03515625 75.36328125 C-150.97532054 67.74290383 -147.94300996 62.82692815 -141.16015625 58.55078125 C-133.55746805 55.66175973 -128.04984774 58.31046595 -120.92578125 61.3671875 C-118.02028827 62.69613069 -118.02028827 62.69613069 -115.03515625 61.36328125 C-114.22562929 58.78233694 -113.62347749 56.3486973 -113.09765625 53.70703125 C-112.93144775 52.93073364 -112.76523926 52.15443604 -112.59399414 51.35461426 C-112.06184483 48.85996128 -111.54760089 46.36204977 -111.03515625 43.86328125 C-106.32188741 21.2696567 -106.32188741 21.2696567 -104.03515625 16.36328125 C-101.3046875 14.6015625 -101.3046875 14.6015625 -97.84765625 13.67578125 C-97.20546143 13.4948291 -96.5632666 13.31387695 -95.90161133 13.12744141 C-93.62167186 12.49971233 -91.33009654 11.93362946 -89.03515625 11.36328125 C-87.13618765 10.85615125 -85.2377793 10.34692015 -83.33984375 9.8359375 C-78.23585802 8.48480981 -73.11444344 7.23480912 -67.97070312 6.04443359 C-66.08121551 5.60600458 -64.19420997 5.15666165 -62.31054688 4.69384766 C-48.82495532 1.42484606 -48.82495532 1.42484606 -44.8671875 3.5 C-43.28515625 5.23828125 -43.28515625 5.23828125 -41.84765625 7.24609375 C-34.44992737 15.88740636 -18.82692247 19.39973069 -8.03515625 20.36328125 C-1.62505119 20.66852435 3.89335937 20.52203125 9.96484375 18.36328125 C9.20091145 13.91506786 7.13188071 12.15331159 3.7734375 9.3125 C-2.06981706 5.25716756 -8.60628664 2.36706135 -15.03515625 -0.63671875 C-15.03515625 -0.96671875 -15.03515625 -1.29671875 -15.03515625 -1.63671875 C-4.10781861 -3.30360076 -4.10781861 -3.30360076 0 0 Z M49.39453125 46.25390625 C45.54493765 51.93363451 44.40393107 56.94112302 44.46484375 63.67578125 C44.47128906 64.42126221 44.47773438 65.16674316 44.484375 65.93481445 C44.72999481 73.37693302 46.61357192 78.82622463 51.796875 84.296875 C55.01645055 87.04653223 57.81365156 88.72664043 62.08984375 88.98828125 C67.43557788 88.12606607 70.30542214 86.51625449 73.6328125 82.19921875 C79.77178639 73.24594091 80.42705661 63.28456036 78.46875 52.67578125 C76.55868047 47.15060839 73.12972478 43.07239785 68.58984375 39.48828125 C60.04214062 35.82497991 54.83675862 40.07624274 49.39453125 46.25390625 Z M-62.70703125 44.87890625 C-68.17463306 50.88785478 -70.59782677 57.13438283 -70.47265625 65.30078125 C-70.46363281 66.00517334 -70.45460938 66.70956543 -70.4453125 67.43530273 C-70.17701613 75.47767287 -67.91151899 79.75499645 -62.34765625 85.36328125 C-58.73257171 88.27412855 -55.92975212 89.44093271 -51.2734375 89.046875 C-45.56660883 87.30395176 -41.59593947 82.6585397 -38.59765625 77.67578125 C-34.94132976 69.92436909 -34.98371718 61.76215053 -37.53515625 53.61328125 C-39.77462096 48.07020903 -42.96931527 44.51098827 -48.03515625 41.36328125 C-53.65417475 39.299152 -58.39828475 40.97284634 -62.70703125 44.87890625 Z M22.96484375 95.36328125 C22.05115398 99.08832416 21.95119334 102.16535032 22.21484375 105.98828125 C21.96484375 109.36328125 21.96484375 109.36328125 19.83984375 112.11328125 C16.98776021 114.34534663 14.22093098 115.80602214 10.96484375 117.36328125 C8.44066916 119.19113181 8.01306378 120.20484402 7.08984375 123.23828125 C6.93908065 127.00735874 7.71505368 128.39034437 9.96484375 131.36328125 C10.61453125 132.22953125 10.61453125 132.22953125 11.27734375 133.11328125 C13.94889145 135.09220547 15.61239025 135.30232755 18.96484375 135.36328125 C28.0001388 133.54037084 34.38635592 127.37119858 39.96484375 120.36328125 C43.26549554 113.94935092 43.85333482 108.46133771 42.96484375 101.36328125 C40.83925072 96.95464386 38.13525779 93.94496613 33.96484375 91.36328125 C28.96210682 90.52949176 26.34241243 91.59970472 22.96484375 95.36328125 Z M-39.03515625 144.36328125 C-39.36515625 144.69328125 -39.69515625 145.02328125 -40.03515625 145.36328125 C-40.23683971 151.7163103 -39.16161126 154.77873991 -34.91015625 159.55078125 C-33.30688724 161.17666691 -31.68319118 162.78278874 -30.03515625 164.36328125 C-29.47570312 164.94207031 -28.91625 165.52085937 -28.33984375 166.1171875 C-17.8788758 176.18389786 -3.52684613 178.76819033 10.37597656 178.73120117 C24.18557089 178.46289322 34.07598606 172.92877006 44.30078125 164.109375 C46.70571973 161.58588321 47.81141402 159.36057448 48.33984375 155.92578125 C47.82805736 152.42857424 46.40547554 150.87170837 43.96484375 148.36328125 C41.51732242 146.56843228 40.26387685 146.36328125 37.21484375 146.36328125 C34.05918104 147.33425439 32.67062564 148.22565835 30.15234375 150.23828125 C23.00190538 155.90697478 14.10737726 157.89596708 5.08203125 157.11328125 C-8.07889421 155.22834052 -16.66537258 150.53770631 -25.609375 140.6171875 C-27.14912097 139.0341299 -27.14912097 139.0341299 -30.41015625 138.86328125 C-34.89690049 139.48214252 -36.19724565 140.94109494 -39.03515625 144.36328125 Z " fill="#B06241" transform="translate(297.03515625,354.63671875)"/>
<path d="M0 0 C0.72960937 0.57363281 1.45921875 1.14726562 2.2109375 1.73828125 C3.66886719 2.87330078 3.66886719 2.87330078 5.15625 4.03125 C8.43257842 6.7822665 10.92578259 9.93612739 13.4609375 13.36328125 C13.8940625 13.935625 14.3271875 14.50796875 14.7734375 15.09765625 C16.66049106 17.60207918 18.47116513 20.12862269 20.2109375 22.73828125 C22.3980129 23.19816649 22.3980129 23.19816649 24.9453125 23.14453125 C25.90501953 23.16410889 26.86472656 23.18368652 27.85351562 23.20385742 C28.87896484 23.21521729 29.90441406 23.22657715 30.9609375 23.23828125 C52.06779507 23.84463198 69.91428046 28.95260796 85.9609375 43.17578125 C97.22252259 56.00147538 104.11032758 70.31806231 103.4921875 87.83203125 C102.4316564 98.79085259 99.93539839 108.29292078 94.2109375 117.73828125 C93.73140625 118.53878906 93.251875 119.33929688 92.7578125 120.1640625 C87.83925771 127.35558579 80.6871847 131.55829907 73.2109375 135.73828125 C72.44265625 136.22296875 71.674375 136.70765625 70.8828125 137.20703125 C66.38410355 138.10151139 62.72860433 136.00111305 58.5859375 134.30078125 C39.85079654 127.11320343 20.64242054 122.75728126 0.8984375 119.42578125 C0.17718689 119.30249451 -0.54406372 119.17920776 -1.28717041 119.05218506 C-21.62013051 115.61820238 -41.86973577 114.34886478 -62.4765625 114.42578125 C-63.52488251 114.4279364 -64.57320251 114.43009155 -65.65328979 114.43231201 C-81.88136818 114.48566494 -97.75631316 115.01601139 -113.7890625 117.73828125 C-115.03381348 117.94759277 -116.27856445 118.1569043 -117.56103516 118.37255859 C-131.73066784 120.79685574 -145.79372729 123.53967695 -159.46044922 128.08520508 C-165.09929545 129.88763252 -165.09929545 129.88763252 -168.53125 129.14453125 C-181.31946212 121.17955485 -188.66611188 106.9668343 -192.22265625 92.6796875 C-195.32523716 76.56766386 -193.41865919 59.93903454 -184.96484375 45.65625 C-175.80903133 32.50713628 -163.58550533 24.96766778 -148.08056641 21.27001953 C-141.185277 20.15609427 -134.1796123 20.8257914 -127.24023438 21.29492188 C-121.15401151 21.74991676 -121.15401151 21.74991676 -115.99243164 19.12841797 C-114.69601856 17.051113 -113.73093193 14.99558747 -112.7890625 12.73828125 C-102.93974344 -2.43334066 -89.03484944 -11.88102018 -71.45239258 -16.17871094 C-45.67015827 -21.45643577 -21.01354501 -15.28602643 0 0 Z " fill="#B06241" transform="translate(693.7890625,147.26171875)"/>
<path d="M0 0 C5.96064484 5.18979453 10.2143389 11.11713634 13.6875 18.1875 C14.74487454 20.94959983 14.74487454 20.94959983 17.9375 21.625 C19.88805788 21.62084546 21.83894065 21.61100022 23.78881836 21.55932617 C42.23499585 21.09089466 60.01886793 24.64203624 74.02734375 37.55078125 C85.87615064 49.99089136 90.47661694 64.65507464 90.35742188 81.48144531 C89.83538993 98.3136293 82.54975385 112.34756791 71.26953125 124.48046875 C69.06113958 126.51130129 67.73159625 127.63433531 64.9375 128.625 C62.14208984 128.27294922 62.14208984 128.27294922 58.8984375 127.4296875 C57.69106934 127.12764404 56.48370117 126.82560059 55.23974609 126.5144043 C54.28004913 126.26586197 54.28004913 126.26586197 53.30096436 126.01229858 C49.91815371 125.14076719 46.52259678 124.32340662 43.125 123.51171875 C42.43570404 123.34700577 41.74640808 123.18229279 41.03622437 123.0125885 C34.50780612 121.47842989 27.94378845 120.31270501 21.3125 119.3125 C20.35778809 119.16603027 19.40307617 119.01956055 18.41943359 118.86865234 C15.26285654 118.41147823 12.10373694 118.00988913 8.9375 117.625 C7.9092662 117.49579666 7.9092662 117.49579666 6.86026001 117.36398315 C-7.63966459 115.57979235 -22.02699344 115.26428907 -36.625 115.3125 C-37.77202393 115.31432281 -38.91904785 115.31614563 -40.10083008 115.31802368 C-56.9534325 115.3631006 -73.40672812 115.86027673 -90.0625 118.625 C-91.16706543 118.79660645 -92.27163086 118.96821289 -93.40966797 119.14501953 C-116.14278395 122.70133951 -138.71038058 127.65641737 -160.40600586 135.40380859 C-171.71490101 139.41524811 -171.71490101 139.41524811 -176.8359375 137.69140625 C-191.20472205 129.38512689 -200.94553061 118.61304055 -206.0625 102.625 C-209.67099696 87.77809957 -207.97993586 72.78761312 -200.3125 59.4375 C-199.25700854 57.81487879 -198.1729017 56.21055034 -197.0625 54.625 C-196.48757812 53.79226562 -195.91265625 52.95953125 -195.3203125 52.1015625 C-183.67426645 36.39631367 -165.56793678 27.9758776 -146.64599609 24.90380859 C-142.74679205 24.48300997 -138.87323382 24.54779735 -134.95532227 24.56201172 C-126.06977279 24.93955935 -126.06977279 24.93955935 -118.328125 21.44140625 C-116.59527584 18.57584606 -115.33833463 15.71707055 -114.0625 12.625 C-105.01573902 -0.30804563 -90.5783758 -8.13549654 -76.0625 -13.375 C-75.06476563 -13.7359375 -74.06703125 -14.096875 -73.0390625 -14.46875 C-48.23368476 -21.65100415 -20.20966699 -15.5989916 0 0 Z " fill="#B06241" transform="translate(337.0625,146.375)"/>
<path d="M0 0 C1.38711182 0.2168042 1.38711182 0.2168042 2.80224609 0.43798828 C18.57305264 2.91857325 34.83967293 5.94655764 50 11 C51.70908226 26.65024146 53.38899374 42.26132149 54 58 C50.33366149 59.22211284 48.77884736 58.65137545 45.05859375 57.70703125 C43.84840576 57.40821045 42.63821777 57.10938965 41.39135742 56.80151367 C40.74750092 56.63992767 40.10364441 56.47834167 39.4402771 56.31185913 C-35.16359356 37.71062586 -115.28447834 43.50798607 -186 74 C-186.93832329 62.66712808 -187.12314601 51.42847825 -187.0625 40.0625 C-187.05746771 38.39648574 -187.0529079 36.73046999 -187.04882812 35.06445312 C-187.03797619 31.04293074 -187.02081016 27.02148267 -187 23 C-163.03250847 12.30740183 -137.74964692 5.74509209 -112 1 C-110.78731445 0.7740918 -109.57462891 0.54818359 -108.32519531 0.31542969 C-73.45208706 -5.84532838 -34.89593144 -5.85242308 0 0 Z " fill="#B06241" transform="translate(352,286)"/>
<path d="M0 0 C1.22605957 0.19867676 2.45211914 0.39735352 3.71533203 0.60205078 C68.47550446 11.47550446 68.47550446 11.47550446 80 23 C80.10041431 24.7528928 80.13081666 26.50985958 80.1328125 28.265625 C80.13474609 29.37446045 80.13667969 30.4832959 80.13867188 31.62573242 C80.13416016 32.82174072 80.12964844 34.01774902 80.125 35.25 C80.12306641 36.45954346 80.12113281 37.66908691 80.11914062 38.9152832 C80.06842027 49.63066254 79.64190597 60.30538807 79 71 C74.42415792 69.53409265 69.89987384 67.9976558 65.44140625 66.203125 C26.32950867 50.46591236 -15.79304706 44.39367329 -57.78173828 44.60888672 C-61.49939626 44.62499738 -65.21596772 44.60889848 -68.93359375 44.58984375 C-90.83501132 44.57003674 -112.53290859 46.40792561 -134.0625 50.5 C-135.73795898 50.79970703 -135.73795898 50.79970703 -137.44726562 51.10546875 C-143.65455293 52.24595337 -149.70039668 53.6494727 -155.75561523 55.43164062 C-158 56 -158 56 -161 56 C-161.17411345 46.90136292 -160.62454534 37.8820301 -160 28.8125 C-159.90331248 27.36916292 -159.80695611 25.92580361 -159.7109375 24.48242188 C-159.47776718 20.98801732 -159.24014602 17.49393293 -159 14 C-135.19487237 6.183495 -110.93532042 0.63776196 -86 -2 C-85.16984375 -2.0942627 -84.3396875 -2.18852539 -83.484375 -2.28564453 C-56.20504875 -5.00870585 -27.04020832 -4.38394055 0 0 Z " fill="#B06241" transform="translate(683,286)"/>
<path d="M0 0 C4.00019123 3.79505321 5.75680116 5.81121046 6.375 11.375 C5.99297963 15.06786357 5.51585047 16.31505756 2.7265625 18.69140625 C1.87191406 19.33916016 1.87191406 19.33916016 1 20 C-0.04027344 20.81791016 -0.04027344 20.81791016 -1.1015625 21.65234375 C-17.72111469 34.02227103 -37.67533647 38.65823677 -58 40 C-59.51400391 40.10828125 -59.51400391 40.10828125 -61.05859375 40.21875 C-78.11683293 40.79945601 -99.32518341 37.8962682 -113 27 C-114.34375 25.0390625 -114.34375 25.0390625 -115 23 C-113.09056 16.84736 -113.09056 16.84736 -110.3359375 14.70703125 C-106.86298464 13.65585321 -104.25857593 14.50637982 -100.75 15.3125 C-80.55662281 19.86631261 -58.13955687 20.02924092 -38 15 C-36.79706299 14.70198486 -36.79706299 14.70198486 -35.56982422 14.39794922 C-23.58461972 11.32511496 -12.83955683 6.92920929 -2 1 C-1.34 0.67 -0.68 0.34 0 0 Z " fill="#B06141" transform="translate(704,570)"/>
<path d="M0 0 C3.59831168 1.34419689 6.96491915 2.98644117 10.36621094 4.7668457 C29.70021683 14.8309618 49.42385372 19.22413386 71.125 19.3125 C71.82821381 19.31644775 72.53142761 19.32039551 73.25595093 19.32446289 C85.19711776 19.35566345 96.50080012 18.14630443 108.14770508 15.3671875 C110 15 110 15 113 15 C113.70226141 16.24176695 114.38629109 17.49385599 115.0625 18.75 C115.44535156 19.44609375 115.82820313 20.1421875 116.22265625 20.859375 C117.15944372 23.43907114 117.10917265 24.50307181 116 27 C98.87945818 42.02414895 72.07025172 40.82448811 51 40 C45.82552495 39.58834883 40.96610899 38.51042946 36 37 C35.00516602 36.70996094 35.00516602 36.70996094 33.99023438 36.4140625 C20.10450148 32.29034347 3.95512723 25.89766191 -4 13 C-5.09142008 9.39666838 -5.15906046 8.38628969 -3.6875 4.8125 C-2 2 -2 2 0 0 Z " fill="#B06141" transform="translate(220,569)"/>
</svg>
